<svg width="80" height="60" viewBox="0 0 80 60" fill="none" xmlns="http://www.w3.org/2000/svg">
<path d="M78.1694 33.619H69.095V13.6414C69.095 12.6303 68.2752 11.8108 67.2644 11.8108H58.1881V2.73638C58.1881 1.72533 57.3684 0.905762 56.3575 0.905762H23.6425C22.6316 0.905762 21.8119 1.72533 21.8119 2.73638V11.8108H12.7356C11.7248 11.8108 10.905 12.6303 10.905 13.6414V33.619H1.83062C0.819752 33.619 0 34.4385 0 35.4496V57.2633C0 58.2743 0.819752 59.0939 1.83062 59.0939H12.7355C13.7463 59.0939 14.5661 58.2743 14.5661 57.2633V48.1871H21.8117V57.2633C21.8117 58.2743 22.6314 59.0939 23.6423 59.0939H34.5473C35.5582 59.0939 36.3779 58.2743 36.3779 57.2633V48.1871H43.6217V57.2633C43.6217 58.2743 44.4415 59.0939 45.4523 59.0939H56.3572C57.368 59.0939 58.1878 58.2743 58.1878 57.2633V48.1871H65.4334V57.2633C65.4334 58.2743 66.2531 59.0939 67.264 59.0939H78.169C79.1799 59.0939 79.9996 58.2743 79.9996 57.2633V35.4496C80 34.4385 79.1803 33.619 78.1694 33.619ZM76.3388 55.4327H69.095V46.3564C69.095 45.3454 68.2752 44.5258 67.2644 44.5258H56.3575C55.3466 44.5258 54.5269 45.3454 54.5269 46.3564V55.4327H47.2831V46.3564C47.2831 45.3454 46.4634 44.5258 45.4525 44.5258H34.5475C33.5366 44.5258 32.7169 45.3454 32.7169 46.3564V55.4327H25.4731V46.3564C25.4731 45.3454 24.6533 44.5258 23.6425 44.5258H12.7356C11.7248 44.5258 10.905 45.3454 10.905 46.3564V55.4327H3.66124V37.2802H12.7355C13.7463 37.2802 14.5661 36.4606 14.5661 35.4496V15.472H23.6423C24.6532 15.472 25.4729 14.6525 25.4729 13.6414V4.567H54.5267V13.6414C54.5267 14.6525 55.3465 15.472 56.3573 15.472H65.4336V35.4496C65.4336 36.4606 66.2533 37.2802 67.2642 37.2802H76.3386V55.4327H76.3388Z" fill="#00D1FF"/>
</svg>
