<svg id="Layer_1" data-name="Layer 1" xmlns="http://www.w3.org/2000/svg" xmlns:xlink="http://www.w3.org/1999/xlink" viewBox="0 0 2865.13 661.09"><defs><clipPath id="clip-path"><rect x="0.06" y="-55.73" width="2865.07" height="757.43" style="fill:none"/></clipPath><linearGradient id="linear-gradient" y1="1964.5" x2="2878.69" y2="1964.5" gradientTransform="translate(0.06 -1304.51)" gradientUnits="userSpaceOnUse"><stop offset="0" stop-color="#ed1eff"/><stop offset="1" stop-color="#00d1ff"/></linearGradient><linearGradient id="linear-gradient-2" x1="0" y1="1956.61" x2="2878.61" y2="1956.61" xlink:href="#linear-gradient"/><linearGradient id="linear-gradient-3" x1="-0.01" y1="1949.53" x2="2878.65" y2="1949.53" xlink:href="#linear-gradient"/><linearGradient id="linear-gradient-4" x1="-0.01" y1="1943.04" x2="2878.57" y2="1943.04" xlink:href="#linear-gradient"/><linearGradient id="linear-gradient-5" x1="-0.01" y1="1937.24" x2="2878.63" y2="1937.24" xlink:href="#linear-gradient"/><linearGradient id="linear-gradient-6" x1="-0.01" y1="1931.96" x2="2878.47" y2="1931.96" xlink:href="#linear-gradient"/><linearGradient id="linear-gradient-7" x1="-0.01" y1="1927.37" x2="2878.35" y2="1927.37" xlink:href="#linear-gradient"/><linearGradient id="linear-gradient-8" x1="-0.01" y1="1923.21" x2="2878.32" y2="1923.21" xlink:href="#linear-gradient"/><linearGradient id="linear-gradient-9" x1="-0.01" y1="1919.37" x2="2878.06" y2="1919.37" xlink:href="#linear-gradient"/><linearGradient id="linear-gradient-10" x1="-0.01" y1="1915.88" x2="2878.05" y2="1915.88" xlink:href="#linear-gradient"/><linearGradient id="linear-gradient-11" x1="-0.01" y1="1912.6" x2="2878" y2="1912.6" xlink:href="#linear-gradient"/><linearGradient id="linear-gradient-12" x1="-0.01" y1="1909.5" x2="2877.71" y2="1909.5" xlink:href="#linear-gradient"/><linearGradient id="linear-gradient-13" x1="-0.01" y1="1906.36" x2="2877.65" y2="1906.36" xlink:href="#linear-gradient"/><linearGradient id="linear-gradient-14" x1="0" y1="1903.3" x2="2877.66" y2="1903.3" xlink:href="#linear-gradient"/><linearGradient id="linear-gradient-15" x1="0" y1="1899.85" x2="2877.44" y2="1899.85" xlink:href="#linear-gradient"/><linearGradient id="linear-gradient-16" x1="0" y1="1896.43" x2="2877.09" y2="1896.43" xlink:href="#linear-gradient"/><linearGradient id="linear-gradient-17" x1="0" y1="1892.53" x2="2876.9" y2="1892.53" xlink:href="#linear-gradient"/><linearGradient id="linear-gradient-18" x1="0" y1="1888.21" x2="2876.77" y2="1888.21" xlink:href="#linear-gradient"/><linearGradient id="linear-gradient-19" x1="0" y1="1883.26" x2="2876.61" y2="1883.26" xlink:href="#linear-gradient"/><linearGradient id="linear-gradient-20" x1="0" y1="1877.84" x2="2876.29" y2="1877.84" xlink:href="#linear-gradient"/><linearGradient id="linear-gradient-21" x1="0" y1="1871.8" x2="2875.91" y2="1871.8" xlink:href="#linear-gradient"/><linearGradient id="linear-gradient-22" x1="-0.01" y1="1865.14" x2="2875.6" y2="1865.14" xlink:href="#linear-gradient"/><linearGradient id="linear-gradient-23" x1="-0.01" y1="1857.98" x2="2875.51" y2="1857.98" xlink:href="#linear-gradient"/><linearGradient id="linear-gradient-24" x1="0" y1="1844.07" x2="2875.05" y2="1844.07" xlink:href="#linear-gradient"/><linearGradient id="linear-gradient-25" x1="0" y1="1826.71" x2="2874.77" y2="1826.71" xlink:href="#linear-gradient"/><linearGradient id="linear-gradient-26" x1="0" y1="1808.04" x2="2874.25" y2="1808.04" xlink:href="#linear-gradient"/><linearGradient id="linear-gradient-27" x1="0" y1="1788.99" x2="2873.61" y2="1788.99" xlink:href="#linear-gradient"/><linearGradient id="linear-gradient-28" x1="-0.01" y1="1772.73" x2="2873.25" y2="1772.73" xlink:href="#linear-gradient"/><linearGradient id="linear-gradient-29" x1="-0.01" y1="1758.9" x2="2872.84" y2="1758.9" xlink:href="#linear-gradient"/><linearGradient id="linear-gradient-30" x1="-0.01" y1="1745.14" x2="2872.22" y2="1745.14" xlink:href="#linear-gradient"/><linearGradient id="linear-gradient-31" x1="-0.02" y1="1731.66" x2="2871.64" y2="1731.66" xlink:href="#linear-gradient"/><linearGradient id="linear-gradient-32" x1="-0.02" y1="1719.23" x2="2871.14" y2="1719.23" xlink:href="#linear-gradient"/><linearGradient id="linear-gradient-33" x1="0" y1="1706.61" x2="2870.4" y2="1706.61" xlink:href="#linear-gradient"/><linearGradient id="linear-gradient-34" x1="-0.02" y1="1690.3" x2="2869.91" y2="1690.3" xlink:href="#linear-gradient"/><linearGradient id="linear-gradient-35" x1="-0.05" y1="1671" x2="2869.35" y2="1671" xlink:href="#linear-gradient"/><linearGradient id="linear-gradient-36" x1="-0.05" y1="1649.52" x2="2868.57" y2="1649.52" xlink:href="#linear-gradient"/><linearGradient id="linear-gradient-37" x1="-0.04" y1="1628.5" x2="2868.06" y2="1628.5" xlink:href="#linear-gradient"/><linearGradient id="linear-gradient-38" x1="-0.03" y1="1609" x2="2867.46" y2="1609" xlink:href="#linear-gradient"/><linearGradient id="linear-gradient-39" x1="-0.01" y1="1589.48" x2="2866.82" y2="1589.48" xlink:href="#linear-gradient"/><linearGradient id="linear-gradient-40" x1="-0.01" y1="1570.33" x2="2866.41" y2="1570.33" xlink:href="#linear-gradient"/><linearGradient id="linear-gradient-41" x1="-0.04" y1="1552.48" x2="2866.27" y2="1552.48" xlink:href="#linear-gradient"/><linearGradient id="linear-gradient-42" x1="-0.05" y1="1536.17" x2="2865.86" y2="1536.17" xlink:href="#linear-gradient"/><linearGradient id="linear-gradient-43" x1="-0.06" y1="1522.24" x2="2865.43" y2="1522.24" xlink:href="#linear-gradient"/><linearGradient id="linear-gradient-44" x1="-0.06" y1="1511.23" x2="2865.29" y2="1511.23" xlink:href="#linear-gradient"/><linearGradient id="linear-gradient-45" x1="-0.04" y1="1503.77" x2="2865.06" y2="1503.77" xlink:href="#linear-gradient"/><linearGradient id="linear-gradient-46" x1="0" y1="1499.99" x2="2865.08" y2="1499.99" xlink:href="#linear-gradient"/></defs><g id="Layer_2" data-name="Layer 2"><g id="Layer_1-2" data-name="Layer 1-2"><g style="clip-path:url(#clip-path)"><path d="M.06,660q577.28-.3,1154.55,0,517.47.16,1034.88-.08,344.58.12,689.26,0" style="fill:none;stroke-miterlimit:10;stroke-width:2px;stroke:url(#linear-gradient)"/><path d="M.06,652.84c206.78-.94,413.49-3.44,620.26-2.7,179.34.67,358.67,2.74,538,3.44,343.86,1.37,687.79-2.19,1031.64-.51,108.37.51,216.74,1.45,325.13,1,121.22-.47,242.35-2.11,363.57-1.06" style="fill:none;stroke-miterlimit:10;stroke-width:2px;stroke:url(#linear-gradient-2)"/><path d="M.06,645.68c208.6-1.68,416.79-6.13,625.46-4.64,180.67,1.28,361.26,5.15,542,6.56,342,2.66,683.93-3.83,1026-.39,107.6,1.09,215.19,2.81,322.87,1.76,120.79-1.17,241.51-4.57,362.31-2.93" style="fill:none;stroke-miterlimit:10;stroke-width:2px;stroke:url(#linear-gradient-3)"/><path d="M.06,638.61c110.41-1.17,220.68-5,331.08-6.14q151.73-1.63,303.36,0c182.36,1.92,364.64,7.55,547.06,9.7,166.28,2,332.07-.35,498.35-1.37,173.16-1,346.53-1.17,519.61,1.6,106.54,1.72,212.83,4.26,319.43,2.31,120-2.19,239.56-7.55,359.66-5.55" style="fill:none;stroke-miterlimit:10;stroke-width:2px;stroke:url(#linear-gradient-4)"/><path d="M.06,631.58c112.79-1.41,225.31-6.22,338.1-7.59q154.35-1.87,308.63.24c184.39,2.54,368.63,9.89,553.09,12.86,80.09,1.29,160.45,3,240.61,1.64q127.18-2.24,254.37-3.09c171-1.17,342.37-1.17,513.23,2.77,105.14,2.43,209.65,5.79,315,2.7,118.62-3.44,236.61-11,355.58-8.83" style="fill:none;stroke-miterlimit:10;stroke-width:2px;stroke:url(#linear-gradient-5)"/><path d="M.06,624.58c115.74-1.56,231.07-7.31,346.81-8.83q157.61-2.06,315.15.66c186.7,3.21,373.13,12.2,559.83,16,79.17,1.64,158.7,3.71,237.94,2.07q126.66-2.58,253.32-3.52c168.31-1.17,337.4-1,505.51,4.18,52.06,1.6,103.59,4.85,156,4.89,51.36,0,102.39.27,153.64-1.92,116.94-5,232.62-14.81,350.25-12.7" style="fill:none;stroke-miterlimit:10;stroke-width:2px;stroke:url(#linear-gradient-6)"/><path d="M.06,617.62c119.18-1.64,237.87-8.28,357.05-9.89q161.42-2.16,322.67,1.22c189.23,3.83,378,14.42,567.27,19.19,78.33,2,157.08,4.34,235.48,2.54q125.82-2.88,251.84-3.8c165.37-1.17,331.79-.7,496.81,5.83,51.37,2,101.84,5.94,153.51,6.1,50.17.11,99.87,0,149.85-2.94,115-6.68,227.69-19,343.85-17.11" style="fill:none;stroke-miterlimit:10;stroke-width:2px;stroke:url(#linear-gradient-7)"/><path d="M.06,610.74c123-1.64,245.52-9.18,368.57-10.78q165.6-2.18,331,1.87c192,4.5,383.31,16.57,575.2,22.36,77.56,2.34,155.61,5,233.24,3q124.88-3.16,250-4c162.14-1.05,325.68-.31,487.33,7.62,50.53,2.47,99.95,7.08,150.9,7.35,48.92.24,97.14-.43,145.64-4.14,112.6-8.6,221.88-23.53,336.43-21.93" style="fill:none;stroke-miterlimit:10;stroke-width:2px;stroke:url(#linear-gradient-8)"/><path d="M.06,603.9c127.18-1.6,253.8-9.92,381.06-11.49q170.13-2.11,340,2.58c194.77,5.12,388.85,18.68,583.48,25.49,76.86,2.69,154.21,5.54,231.14,3.43q123.81-3.39,247.77-4.18c158.7-.93,319.29.16,477.28,9.54,49.69,3,97.86,8.25,148.11,8.64,47.59.35,94.2-.86,141.09-5.44,110-10.67,215.19-28.26,328.12-27" style="fill:none;stroke-miterlimit:10;stroke-width:2px;stroke:url(#linear-gradient-9)"/><path d="M.06,597.14c131.68-1.48,262.65-10.63,394.4-12.12q174.87-2,349.54,3.4c197.72,5.79,394.54,20.68,592,28.58,76.15,3,152.8,6.09,229.1,3.87q122.65-3.58,245.52-4.3c155.19-.79,312.83.62,467,11.61,48.8,3.47,95.67,9.45,145.23,10,46.19.51,91.11-1.37,136.24-6.8,46.95-5.67,92.87-13.72,139.48-20.09,59-8,118.68-12.78,179.53-12.35" style="fill:none;stroke-miterlimit:10;stroke-width:2px;stroke:url(#linear-gradient-10)"/><path d="M.06,590.42c136.24-1.33,271.84-11.22,408.22-12.63,119.89-1.21,239.7.43,359.37,4.26,200.75,6.41,400.23,22.56,600.55,31.66,75.45,3.4,151.47,6.65,227.13,4.26q121.5-3.81,243.21-4.37c151.68-.59,306.37,1.13,456.65,13.71,47.95,4,93.48,10.64,142.34,11.34a814.41,814.41,0,0,0,131.19-8.25c45.14-6.64,88.86-15.91,133.56-23.21,57.42-9.42,115.78-14.92,175.78-14.74" style="fill:none;stroke-miterlimit:10;stroke-width:2px;stroke:url(#linear-gradient-11)"/><path d="M.06,583.77c140.94-1.13,281.18-11.76,422.26-13,123.18-1.1,246.44.9,369.41,5.12,203.69,7,405.84,24.39,609,34.67,74.76,3.79,150.07,7.15,225.1,4.69q120.35-4,241-4.42c148.16-.39,300.2,1.68,446.54,15.83,47,4.57,91.25,11.84,139.47,12.7a643.48,643.48,0,0,0,125.86-9.73c43.24-7.66,84.64-18.14,127.38-26.42A914.27,914.27,0,0,1,2877.77,586" style="fill:none;stroke-miterlimit:10;stroke-width:2px;stroke:url(#linear-gradient-12)"/><path d="M.06,577.21c66.05-.39,132-4,197.72-6.8,79.46-3.4,159-6,238.72-6.61,126.55-.94,253.1,1.41,379.37,6.06,206.57,7.62,411.39,26.07,617.25,37.6,74,4.14,148.59,7.62,223,5q119.4-4.15,239.07-4.49c144.86-.24,294.37,2.15,436.87,18,46.17,5.13,89.14,13,136.78,14a523.54,523.54,0,0,0,120.46-11.18c41.27-8.72,80.22-20.33,121.07-29.59a775.12,775.12,0,0,1,167.33-19.62" style="fill:none;stroke-miterlimit:10;stroke-width:2px;stroke:url(#linear-gradient-13)"/><path d="M.06,570.48c67.73-.27,135.33-4,202.85-6.91,82.33-3.56,164.73-6.22,247.35-6.73,129.78-.78,259.63,1.92,389.13,7,209.44,8.25,416.78,27.67,625.32,40.61,73.34,4.53,147,8.13,220.81,5.43q118.56-4.33,237.46-4.57c141.77-.08,289.11,2.58,427.94,20,45.42,5.71,87.17,14.19,134.34,15.4a425.54,425.54,0,0,0,115-12.62c39.22-9.74,75.72-22.52,114.54-32.72a668.23,668.23,0,0,1,162.91-22" style="fill:none;stroke-miterlimit:10;stroke-width:2px;stroke:url(#linear-gradient-14)"/><path d="M.06,563.27c69.7-.12,139.33-4,208.74-7,85.49-3.67,171.06-6.45,256.83-6.8,133.43-.59,267,2.5,400.08,8,212.81,8.83,423.1,29.16,634.72,43.42,72.79,4.93,145.86,8.56,219.14,5.75q117.18-4.51,234.78-4.57c137.92.11,282.51,3.12,416.86,22.28,44.36,6.33,84.72,15.4,131.17,16.76a343,343,0,0,0,109.15-14.19c37.13-10.86,71-24.81,107.81-36a572.49,572.49,0,0,1,158.15-24.55" style="fill:none;stroke-miterlimit:10;stroke-width:2px;stroke:url(#linear-gradient-15)"/><path d="M.06,556.1c71.8,0,143.47-4.14,215-7.23,88.79-3.83,177.58-6.72,266.65-7,137.29-.46,274.65,2.94,411.52,8.88,216.32,9.34,429.83,30.52,644.75,46.12,72.37,5.23,144.87,8.87,217.8,6,77.42-3,155-4.65,232.68-4.38,134.49.47,276.83,4,406.82,25,43.45,7,82.47,16.69,128.38,18.34,37.75,1.32,70.39-4.66,102.18-15.8,34.55-12.07,65.21-27.2,99.62-39.39,46.39-16.5,96.58-25.92,151.67-27.25" style="fill:none;stroke-miterlimit:10;stroke-width:2px;stroke:url(#linear-gradient-16)"/><path d="M.06,549c73.63,0,147.12-4.34,220.46-7.59,91.74-4.06,183.55-7.07,275.64-7.34,140.73-.43,281.67,3.2,422,9.53,219.76,9.89,436.23,31.82,654.24,48.9,71.87,5.63,143.67,9.26,216.25,6.33q115.08-4.7,230.57-4.3c70.34.39,140.8,2.39,210.65,7,62.18,4.1,126.61,9.38,186.28,20.44,42.39,7.82,80.22,17.94,125.63,19.78,36.64,1.48,66.9-5.2,96.17-17.16,32.21-13.21,60.15-29.36,92.44-42.49,43.73-17.82,92.23-28,146.54-29.59" style="fill:none;stroke-miterlimit:10;stroke-width:2px;stroke:url(#linear-gradient-17)"/><path d="M.06,542.07c75.1,0,150.14-4.65,225-8,94.47-4.3,189-7.51,283.77-7.82,143.82-.47,287.85,3.32,431.11,10.08,147.75,7,295.5,18.41,442,31.16,73.84,6.41,147.19,14.3,221.1,20.56,71.31,6,142.35,9.69,214.36,6.64,76.08-3.24,152.45-4.89,228.75-4.38,69.21.47,138.54,2.66,207.19,7.66,60.29,4.38,123,10.13,180.33,21.89,41.33,8.48,78.11,19.07,123,21.11,35.79,1.6,64-5.63,91-18.33,30.32-14.23,55.78-31.27,86.47-45.3,41.55-19,88.78-29.9,142.61-31.59" style="fill:none;stroke-miterlimit:10;stroke-width:2px;stroke:url(#linear-gradient-18)"/><path d="M.06,535.15c76.3,0,152.45-5,228.4-8.68,96.79-4.65,193.65-8.05,290.79-8.4,146.42-.54,293,3.32,438.9,10.48,151.19,7.42,302.45,19.26,452.23,32.91,73.14,6.64,145.78,15,218.92,21.69,70.54,6.49,140.8,10.16,212.25,7,75.6-3.4,151.4-5.16,227.28-4.62,68.22.51,136.59,2.78,204.18,8.13,58.54,4.62,119.66,10.75,174.7,23.22,40.35,9.15,76.23,20.17,120.65,22.36,35.16,1.72,61.71-6,86.83-19.23,28.63-15.13,52.23-33,81.56-47.73,39.8-20,86.13-31.46,139.89-33.18" style="fill:none;stroke-miterlimit:10;stroke-width:2px;stroke:url(#linear-gradient-19)"/><path d="M.06,528.39c77.07-.12,154-5.51,230.64-9.38,98.69-5,197.52-8.64,296.7-9.11,148.44-.7,297.25,3.17,445.07,10.75,154.48,7.9,309,20.09,462,34.63,72.37,6.88,144.1,15.63,216.33,22.83,69.7,6.92,139,10.67,209.73,7.27,75.24-3.64,150.84-5.55,226.36-5,67.46.47,135,2.82,201.71,8.41,57,4.76,116.74,11.25,169.8,24.31,39.52,9.73,74.54,21.22,118.62,23.49,34.75,1.8,59.87-6.18,83.39-19.86,27.38-15.87,49.28-34.39,77.63-49.79,38.47-21,84.36-32.76,138.28-34.4" style="fill:none;stroke-miterlimit:10;stroke-width:2px;stroke:url(#linear-gradient-20)"/><path d="M.06,521.67c77.35-.28,154.63-6.1,231.55-10.24,100.17-5.4,200.54-9.31,301.19-9.93,149.92-.94,300.2,2.93,449.49,10.86,157.58,8.41,315.43,20.88,471.26,36.35,71.45,7.08,142.06,16.22,213.3,23.93,68.72,7.38,137,11.13,206.85,7.54,75.17-3.91,150.69-6,226.21-5.59,66.9.39,133.94,2.73,200.06,8.56,55.73,4.88,114.41,11.65,165.64,25.25,38.74,10.28,73.29,22.16,117.15,24.54,34.38,1.88,58.46-6.21,80.85-20.24,26.41-16.5,47-35.57,74.61-51.52,37.63-21.69,83.38-33.77,137.72-35.21" style="fill:none;stroke-miterlimit:10;stroke-width:2px;stroke:url(#linear-gradient-21)"/><path d="M.06,515.06c77.21-.47,154.28-6.76,230.92-11.18,101.15-5.82,202.57-10,304.28-10.82,150.76-1.22,301.88,2.58,452,10.82,160.52,8.88,321.4,21.62,480,38,70.33,7.26,139.75,16.76,209.73,24.93,67.59,7.9,134.69,11.61,203.62,7.74,75.38-4.22,151.26-6.64,227.06-6.33,66.62.27,133.44,2.54,199.28,8.48,54.95,5,112.43,12,162.55,26,38.33,10.71,72.29,23.06,116.24,25.45,34.24,1.87,57.48-6,79.16-20.29,25.7-17,45.41-36.47,72.59-52.8,37.19-22.36,83.31-34.48,138.2-35.57" style="fill:none;stroke-miterlimit:10;stroke-width:2px;stroke:url(#linear-gradient-22)"/><path d="M.06,508.57c76.51-.74,152.8-7.5,228.75-12.19,101.63-6.25,203.55-10.79,305.81-11.84,150.91-1.57,302.17,2.15,452.31,10.67,163.26,9.3,327,22.32,488.16,39.59,69.14,7.43,137,17.28,205.66,26,66.33,8.37,132.1,12,199.9,7.9,76-4.61,152.44-7.35,229-7.27,66.76.08,133.78,2.23,199.68,8.24,54.47,5,111.48,12.16,160.74,26.54,38,11.14,72,23.89,116.09,26.27,34.19,1.84,57-5.51,78.27-20,25.33-17.28,44.42-37.09,71.46-53.67,37.25-22.9,84-34.82,139.67-35.41" style="fill:none;stroke-miterlimit:10;stroke-width:2px;stroke:url(#linear-gradient-23)"/><path d="M.06,499.54c73.7-.27,147.26-7.38,220.33-12.46,97.14-6.81,194.67-11.88,292.55-13.6,147-2.58,294.16,1.25,440.3,10.31,157.29,9.78,314.87,22.28,470.12,39.6,73.35,8.17,145.44,19.15,218.44,28.18,70.61,8.71,141,12.39,213.09,7.93,76.79-4.73,153.93-8.28,231.2-9.42,67.6-1,135.53-.31,202.63,4.5,55.31,3.94,113.71,10.28,163.49,24.93,38.74,11.42,74,23.92,118.76,26.58,34.47,2,59.45-4.69,83.17-18.37,27.43-15.87,49.06-34.51,77.57-49.87,39.92-21.46,87.86-32.52,143.39-33.22" style="fill:none;stroke-miterlimit:10;stroke-width:2px;stroke:url(#linear-gradient-24)"/><path d="M.06,490.27c70.4-.12,140.45-7.85,209.87-13.6,91.52-7.58,183.4-13.64,275.84-16.49,142.56-4.42,284.41-.86,425.91,9.34,150.56,10.86,301.11,23.1,449.57,40.92,79.24,9.5,157.08,22.2,236.12,32.21,76,9.65,153.15,14.5,230.85,9.3,77.42-5.16,155-10,232.89-13,68.29-2.58,137.14-4,205.45-1.05,56.21,2.38,115.6,7.27,166.41,21.69,39.72,11.26,76.22,23.37,121.58,26.07,34.66,2.07,62.12-3.52,88.64-15.87,29.76-13.84,54.33-30.8,84.52-44.4,42.8-19.31,91.94-29.08,147.11-29.7" style="fill:none;stroke-miterlimit:10;stroke-width:2px;stroke:url(#linear-gradient-25)"/><path d="M.06,481.14c67-.2,133.43-8.72,199.06-15.33,85.7-8.54,171.94-15.71,258.65-19.85,136.44-6.53,270.93-3.44,406.25,7.7,146,12,291.85,24.51,435.67,43.11,84.23,10.91,166.91,25.09,251.07,36C1631,543.2,1714.93,550,1797.05,544c79.53-5.78,158.91-12.07,238.57-17,70.07-4.3,140.75-7.82,211.35-6.64,56.29.9,115.46,4.53,166.63,18.52,39.86,10.91,76.85,22.36,121.91,25.06,35.1,2.11,65.35-2,95-12.78,33.13-12,61.71-27.52,95-39.52,45.19-16.34,94.95-24.31,148.79-24.7" style="fill:none;stroke-miterlimit:10;stroke-width:2px;stroke:url(#linear-gradient-26)"/><path d="M.06,471.44c63.94-.19,126.9-9.42,189-16.8,80.16-9.58,161-17.67,242.37-23.1,67.8-4.5,136.16-6.73,204.46-5.55,63.24,1.09,125.14,6.06,187.47,11.84,138.63,12.9,277,25.68,413.56,44.52,89.49,12.35,177.44,28.14,267.14,40.06,85.07,11.3,175.55,19.39,262.79,12.7,80.37-6.17,160.32-13.76,240.54-20.44,71-5.9,142.56-11.41,214.43-12.16,57.21-.58,117.43,1.61,169.94,15.52,40.77,10.83,79,21.85,124.72,24.59,35.93,2.19,68.71-1.06,101.06-10.09,35.6-9.92,67.6-23.37,102.92-33.61,48-13.91,99.09-20.75,153.21-21" style="fill:none;stroke-miterlimit:10;stroke-width:2px;stroke:url(#linear-gradient-27)"/><path d="M.06,462c60.92-.36,120.3-10.28,178.84-18.65,74.61-10.63,149.86-19.82,225.94-26.65,63.46-5.71,127.68-9,192-8.21,62.75.7,123.61,6.41,185.09,12.78,131.12,13.6,261.88,27,390.89,46,94.61,13.95,187.54,31.23,282.65,44.13,89.84,12.15,186.57,21.5,278.86,14.19,81.57-6.45,162.35-15.25,243.35-23.49,72.22-7.39,145-14.78,218.44-17.24,58.46-2,119.94-1,174,12.94,41.83,10.82,81.63,21.49,128.08,24.39a391.55,391.55,0,0,0,107.12-7.63c37.91-8,73.13-19.42,110.62-28a708.74,708.74,0,0,1,157.37-17.67" style="fill:none;stroke-miterlimit:10;stroke-width:2px;stroke:url(#linear-gradient-28)"/><path d="M.06,452.76c58.12-.55,113.85-11.26,168.88-20.64q103.59-17.64,209.72-30.33c59.17-6.91,119.25-11.22,179.83-11,62.19.23,121.78,6.68,182.49,13.6,123.32,14.07,246,28.34,367.3,47.3,99.32,15.55,197.17,34.23,297.4,48,94.33,13,197.09,23.49,294.09,15.56,82.89-6.8,164.81-16.81,246.65-26.7,73.69-8.91,147.74-18.21,222.92-22.47,59.81-3.4,122.83-3.83,178.64,10.2,43,10.83,84.36,21.07,131.8,24.11a528.12,528.12,0,0,0,113.28-4.75c40.14-6.06,78.61-15.09,118.33-21.93A940.12,940.12,0,0,1,2872.9,460" style="fill:none;stroke-miterlimit:10;stroke-width:2px;stroke:url(#linear-gradient-29)"/><path d="M.06,443.89c55.73-.67,108.09-12,159.82-22.48q95.81-19.29,194.43-33.92c55.1-8.17,111.32-13.49,168.45-13.68,61.63-.24,119.82,6.88,179.62,14.3,115,14.27,229.24,29.55,342.24,48.23,103.6,17.12,205.8,37.06,310.73,51.6,98.76,13.71,206.5,25,308.2,16.65,84.58-6.92,167.83-18,250.79-29.32,75.45-10.28,151.13-21.3,228.26-27.16,61.56-4.65,126.19-6.22,184.17,8.09,44.3,10.9,87.47,20.91,136,24.19a705.9,705.9,0,0,0,119-2.23c42.25-4.25,83.53-11.1,125.42-16.33a1313,1313,0,0,1,165.09-10.4" style="fill:none;stroke-miterlimit:10;stroke-width:2px;stroke:url(#linear-gradient-30)"/><path d="M.06,435.27c53.55-.94,102.83-12.9,151.54-24.23q88.86-20.7,180.74-37.13c51.52-9.23,104.37-15.44,158.63-16.11,61.76-.78,119.74,7.39,179.33,15.25,116.23,15.36,231,33.41,344.91,53.47,101.78,17.9,202.78,37.56,306.52,51.66,98,13.33,203.83,23.57,304.62,15.52,86.62-6.92,172-18.17,257-29.51,78.54-10.47,157.36-21.65,237.6-27.4,64.21-4.61,131.67-5.94,191.81,9.38,45.5,11.57,90.89,21.66,140.81,25.37,40.92,3,82,2,122.55-1.84,43.52-4.1,86-10.74,129.16-15.94a1422.1,1422.1,0,0,1,166.41-10.6" style="fill:none;stroke-miterlimit:10;stroke-width:2px;stroke:url(#linear-gradient-31)"/><path d="M.06,427c52.15-1,99-13.26,145.5-25.37q83.28-21.69,169.5-39.71c48.71-10.13,99-17,151.12-17.9,61.84-1.14,119.88,7.93,179.4,16.14,118.69,16.34,235.07,37.21,351,58.82,97.88,18.25,195.79,37.17,296.48,50.32,95.6,12.51,197.45,21.11,295.36,13.29,88.58-7.07,175.75-18.48,262.86-29.78,81.63-10.59,163.54-21.77,246.86-27.32,67.1-4.46,136.53-5.36,199.12,10.75,46.75,12,94,22.39,145.29,26.46,42.13,3.32,84.66,2.38,126.55-1.29,44.94-4,88.94-10.52,133.44-15.68,55.67-6.48,111.68-10.39,168.66-10.51" style="fill:none;stroke-miterlimit:10;stroke-width:2px;stroke:url(#linear-gradient-32)"/><path d="M.06,418.05c51,0,96.16-12.74,140.45-25.56,53.13-15.36,107.11-29.94,162.14-43.15,46.53-11.18,95.1-18.76,146.06-19.5,60.15-.86,117.29,8.6,174.91,16.88,215.2,30.92,418,84.74,634.38,112.92C1353.11,472,1452.84,479,1550.06,471c90.4-7.5,179.47-19.23,268.47-30.68,84.3-10.82,169-22.12,255.14-27.44,71-4.37,141.36-4.1,207.13,12.82,47.94,12.32,96.36,23,148.87,27.25,43.58,3.59,87.66,3,131.27-.55,46.39-3.75,91.86-10.2,137.7-15.4,56.78-6.41,113.84-10.36,171.82-10.47" style="fill:none;stroke-miterlimit:10;stroke-width:2px;stroke:url(#linear-gradient-33)"/><path d="M.06,409c50.19.94,93.7-13.28,135.47-27.16C187.05,364.7,239.2,348,292.4,332.61c44.43-12.9,91.67-22.12,142.2-22.82,57.49-.82,112.94,9.1,167.69,17.59,210.22,32.51,405.34,90.44,617.24,119.63,96.09,13.26,195.48,19.39,293.75,11,92.37-7.9,183.33-20,274.44-31.5,86.89-11,174.35-22.28,263.21-27.09,75.38-4.1,146.76-2.11,216.19,15.87,48.92,12.62,98.54,23.53,152.09,28.14,44.92,3.87,90.42,3.59,135.4.19,47.44-3.59,94-10.08,140.94-15.32,57.62-6.45,115.6-10.51,174.42-10.67" style="fill:none;stroke-miterlimit:10;stroke-width:2px;stroke:url(#linear-gradient-34)"/><path d="M.06,400.5C48.7,403.16,93.9,384.6,131.53,370c50.25-19.51,100.86-38.81,152.66-57,42.39-14.93,88.51-26.58,139.32-27.79,55.1-1.33,108.59,9.38,160.53,18.3,205,35.09,391.8,97.75,599.28,128.7,96.74,14.43,195.74,20.3,295.14,11.7,94.34-8.17,187.34-20.44,280.48-31.9,89.49-11,179.76-22.12,271.35-26.3,39-1.76,78.4-2.27,117.23.39,38.6,2.66,73.05,9.73,108.09,18.92,94.26,24.66,190,37.72,294.38,30.33,48.28-3.4,95.59-9.89,143.25-15.21,58.18-6.48,116.72-10.67,176.17-10.78" style="fill:none;stroke-miterlimit:10;stroke-width:2px;stroke:url(#linear-gradient-35)"/><path d="M.06,392.69c48.78,2.65,93.42-19.43,128.38-35.34,49.27-22.39,98.75-44.79,149.36-66.21,40.43-17.12,85.63-31.85,137.29-34,53-2.27,104.37,9.5,153.51,19,199.76,38.5,377.55,106.35,580.81,139.73,97.15,15.94,195.9,22,296.27,13.32,96.3-8.32,191.27-20.67,286.52-32,92.16-10.94,185.23-21.81,279.49-25.21,40.3-1.44,81.07-1.52,121.15,1.76,40.64,3.32,76.5,11.61,113.35,21.38,95.89,25.45,194.09,39.63,300.63,32.6,48.78-3.21,96.64-9.69,144.81-15.05,58.53-6.53,117.27-10.75,177-10.9" style="fill:none;stroke-miterlimit:10;stroke-width:2px;stroke:url(#linear-gradient-36)"/><path d="M.06,385.5c49.34,2.22,93.7-24,126.13-41.2,48.57-25.68,97-51.51,146.77-76.45,38.53-19.35,83-37.64,136-41.31,51.17-3.52,100.17,9.42,146.7,19.65,194.29,42.72,362.6,116.05,562.22,152.2,97.28,17.63,196,24.27,297.32,15.6,98.2-8.44,195.2-20.76,292.48-31.86,94.83-10.78,190.71-21.3,287.57-23.88,41.7-1.09,83.73-.7,125,3.21,42.69,4,80,13.52,118.63,24,97.22,26.26,197.73,41.74,306.38,35,49.14-3,97.28-9.5,145.64-14.89,58.6-6.53,117.43-10.83,177.22-10.95" style="fill:none;stroke-miterlimit:10;stroke-width:2px;stroke:url(#linear-gradient-37)"/><path d="M.06,379c50.33,1.44,94.26-29.43,124.45-47.77,48.08-29.23,95.66-58.78,144.8-87.43C306.23,222.27,350,200,404.49,194.6c49.77-5,96,9.23,140.1,20.37,188.74,47.72,347.3,126.44,543.76,165.72,97.28,19.42,196.11,27,298.52,18.33,100.09-8.44,199-20.72,298.3-31.54,97.43-10.6,196-20.72,295.5-22.4,43-.74,86.41.2,128.72,4.73,44.64,4.81,83.32,15.56,123.82,26.66,98.4,27,201,44,311.5,37.6,49.28-2.82,97.5-9.27,146-14.7,58.46-6.57,117.08-10.9,176.81-11" style="fill:none;stroke-miterlimit:10;stroke-width:2px;stroke:url(#linear-gradient-38)"/><path d="M.06,373.18c51.45.39,95-35.29,123.25-54.79,47.8-32.91,94.62-66.37,143.33-98.81,35.66-23.73,78.61-50,134.83-57.5,48.79-6.52,91.88,8.88,133.65,21.07C718.06,236.54,866.76,320.42,1061.06,363c97.14,21.26,196.32,29.94,299.92,21.34,101.91-8.44,202.63-20.67,303.92-31.19,99.88-10.39,201.23-20.05,303.08-20.83,44.28-.35,89,1.09,132.38,6.29,46.45,5.59,86.61,17.59,128.8,29.39,99.3,27.83,203.81,46.29,316.05,40.29,49.2-2.65,97.42-9,145.78-14.46,58.18-6.57,116.44-10.94,175.89-11.06" style="fill:none;stroke-miterlimit:10;stroke-width:2px;stroke:url(#linear-gradient-39)"/><path d="M.06,368c23.37-.35,43.66-10.08,59.45-18.68,23.79-13,43.59-28.18,63-43.19,47.59-36.66,93.63-74,142.2-110.26,34.68-25.83,76.93-56.09,134.77-65.86,26.11-4.41,47-2.69,71,4,19.37,5.36,38,11.61,56.5,17.82,86.9,29.28,163.54,67.07,243.49,101.7C852.94,289.28,939.47,323,1036,346c97.07,23.1,196.88,33,301.67,24.43,103.6-8.44,206.08-20.6,309.12-30.8,102.33-10.16,206.14-19.43,310.38-19.31,45.55,0,91.38,2,135.8,7.86,48.31,6.41,89.78,19.62,133.58,32.09,100.09,28.57,206.29,48.54,320.14,42.87,49.06-2.46,97.06-8.79,145.23-14.26,57.68-6.57,115.52-11,174.55-11.14" style="fill:none;stroke-miterlimit:10;stroke-width:2px;stroke:url(#linear-gradient-40)"/><path d="M.06,363.65c23.86-.86,43.87-12,59-21.15C82.92,328,102.58,311.39,121.88,295c47.38-40.33,92.72-81.49,141.29-121.4,33.9-27.9,75.46-61.91,135-74,25.82-5.23,45.9-3.94,69.48,3.56,18,5.71,35.24,12.35,52.22,18.92C602.36,154.15,674,194.27,750.06,230.76c80.5,38.57,166.13,74.69,263.07,99.47s197.86,36,304,27.36C1422.2,349.11,1526.29,337,1631,327s210.78-18.84,317.18-17.86c46.69.43,93.71,2.89,139,9.38,50,7.19,92.78,21.62,138.2,34.75C2326.1,382.53,2433.84,404,2549,398.67c48.78-2.27,96.51-8.6,144.37-14.11,57.2-6.61,114.41-11.1,173-11.22" style="fill:none;stroke-miterlimit:10;stroke-width:2px;stroke:url(#linear-gradient-41)"/><path d="M.06,360C24.35,358.72,44,346.33,58.6,336.68c23.93-15.87,43.52-33.81,62.61-51.52,47.3-43.81,91.8-88.6,140.38-132,33.34-29.78,74.19-67.3,135.11-81.45a152.51,152.51,0,0,1,33.36-4.25c13.9,0,23.59,3.52,34.68,7.58C481.44,81.1,497.3,88,512.88,95c78.2,34.75,145.09,77,217.8,115.15,78.67,41.27,163.74,79.73,261.44,106.15,97.42,26.39,199.27,38.7,307,30,106.48-8.6,211.9-20.67,318-30.44,106.62-9.82,215.06-18.34,323.43-16.58,47.73.78,95.81,3.68,141.92,10.83,51.53,8,95.61,23.53,142.5,37.33,101.12,29.82,210.21,52.8,326.51,47.76,48.5-2.11,95.81-8.41,143.33-14,56.57-6.64,113.15-11.21,171.11-11.29" style="fill:none;stroke-miterlimit:10;stroke-width:2px;stroke:url(#linear-gradient-42)"/><path d="M.06,357.08c24.57-1.49,44-15,58.12-24.94,24.07-17.08,43.44-36.19,62.4-55.07,47.16-47,90.75-95.09,139.39-141.6C292.82,104,333,63.35,395.23,47.33a139.66,139.66,0,0,1,32.83-4.77c13.82-.12,23.16,3.64,33.76,8,15.51,6.38,30,13.61,44.29,20.8,73.91,37.4,136.52,81.41,206.35,121.08,77.14,43.82,162,84.39,260.76,112.34,98,27.78,201.37,41,310.8,32,107.6-8.8,214.22-21,321.54-30.65,108.44-9.77,218.85-18.06,329-15.59,48.71,1.09,97.64,4.41,144.51,12.11,52.94,8.68,98.13,25.33,146.36,39.75,101.42,30.33,211.68,54.64,328.84,49.91,48.14-1.95,95.09-8.24,142.12-13.87,55.87-6.68,111.81-11.38,169.1-11.45" style="fill:none;stroke-miterlimit:10;stroke-width:2px;stroke:url(#linear-gradient-43)"/><path d="M.06,354.93c24.78-1.37,44-15.83,57.56-26,24.07-18.06,43.23-38.15,62-58,47-49.68,89.57-100.73,138.14-150,19.09-19.34,39.3-38.49,63.17-56.12,19.51-14.42,42.39-29.35,72-37.48a128.22,128.22,0,0,1,32.36-5c13.83-.12,22.81,3.75,33,8.37,14.46,6.56,27.72,14,40.78,21.45C568.84,91.94,627.66,137.4,695.18,178.4c76,46.22,161.12,88.63,261.21,117.87,99.25,29,204.18,42.8,315.58,33.42,108.51-9.15,216-21.5,324.34-31.15,110-9.81,222.15-18,333.75-14.93,49.49,1.33,99.25,5,146.7,13.21,54.25,9.38,100.44,27,149.92,42,101.5,30.76,212.88,56.24,330.59,51.78,47.81-1.79,94.34-8.08,140.95-13.83,55.23-6.76,110.48-11.53,167.13-11.69" style="fill:none;stroke-miterlimit:10;stroke-width:2px;stroke:url(#linear-gradient-44)"/><path d="M.06,353.6c24.71-.9,43.87-16.14,56.71-26.15,24.08-18.72,43-39.55,61.49-60.11,46.75-51.9,88-105.3,136.52-156.73C273.78,90.4,294,70.39,318,51.86,337.18,37.13,359.78,21.42,389.54,13c23.94-6.76,43.87-6.21,64.09,3.87,13.47,6.72,25.69,14.27,37.62,21.85C557.06,80.55,612.81,127,678.51,169c75.25,48.11,161.09,92,262.86,122.14,51.38,15.17,107,27.4,164.18,33.65,52.43,5.75,104.79,4.81,157.29.2,109.08-9.61,217.24-22.32,326.24-32.13,111.25-10,224.82-18.17,337.75-14.73,50.19,1.52,100.51,5.47,148.45,14.11,55.39,10,102.4,28.53,153,44,101.51,31.07,213.66,57.49,331.79,53.27,47.45-1.68,93.56-8,139.83-13.84,54.6-6.88,109.13-11.76,165.22-12" style="fill:none;stroke-miterlimit:10;stroke-width:2px;stroke:url(#linear-gradient-45)"/><path d="M.06,353.13c24.22.08,43.94-16,55.87-25.48,24.13-19.15,42.75-40.53,60.93-61.56,45.06-52.18,84.2-105.92,130.9-157.71,20-22.24,41.41-44.36,67.17-64.72C333.6,28.92,355.85,12.82,385.82,4.8c22.25-5.94,42.33-5.23,60.43,4.38,13.48,7.09,25.41,15.09,37,23.18C544.73,75.27,597.58,121.83,661.06,164c75.17,50,162.34,95.17,266.29,125.89,54.12,16,113.29,28.85,173.72,34.75,53.7,5.28,106.76,3.4,160.18-1.68,108.23-10.28,215.55-23.26,323.92-33.26,111-10.24,224.19-18.45,336.91-15.05,50.89,1.52,102,5.55,150.5,14.42,56.42,10.28,104,29.47,155.4,45.42,101.7,31.5,215.13,59,334,55.11,47.31-1.57,93.3-7.93,139.27-13.92,54.12-7,108.16-12.11,163.89-12.39" style="fill:none;stroke-miterlimit:10;stroke-width:2px;stroke:url(#linear-gradient-46)"/></g></g></g></svg>