<svg width="80" height="80" viewBox="0 0 80 80" fill="none" xmlns="http://www.w3.org/2000/svg">
<path d="M34.5475 32.7158H23.6425C22.6316 32.7158 21.8119 33.5354 21.8119 34.5464V45.4515C21.8119 46.4625 22.6316 47.2821 23.6425 47.2821H34.5475C35.5584 47.2821 36.3781 46.4625 36.3781 45.4515V34.5464C36.3781 33.5354 35.5584 32.7158 34.5475 32.7158ZM32.7169 43.6208H25.4731V36.3771H32.7169V43.6208Z" fill="#00D1FF"/>
<path d="M56.3573 32.7158H45.4524C44.4416 32.7158 43.6218 33.5354 43.6218 34.5464V45.4515C43.6218 46.4625 44.4416 47.2821 45.4524 47.2821H56.3573C57.3682 47.2821 58.1879 46.4625 58.1879 45.4515V34.5464C58.1879 33.5354 57.3683 32.7158 56.3573 32.7158ZM54.5267 43.6208H47.2831V36.3771H54.5267V43.6208Z" fill="#00D1FF"/>
<path d="M78.1694 43.619H69.095V23.6414C69.095 22.6303 68.2752 21.8108 67.2644 21.8108H58.1881V12.7364C58.1881 11.7253 57.3684 10.9058 56.3575 10.9058H23.6425C22.6316 10.9058 21.8119 11.7253 21.8119 12.7364V21.8108H12.7356C11.7248 21.8108 10.905 22.6303 10.905 23.6414V43.619H1.83062C0.819752 43.619 0 44.4385 0 45.4496V67.2633C0 68.2743 0.819752 69.0939 1.83062 69.0939H12.7355C13.7463 69.0939 14.5661 68.2743 14.5661 67.2633V58.1871H21.8117V67.2633C21.8117 68.2743 22.6314 69.0939 23.6423 69.0939H34.5473C35.5582 69.0939 36.3779 68.2743 36.3779 67.2633V58.1871H43.6217V67.2633C43.6217 68.2743 44.4415 69.0939 45.4523 69.0939H56.3572C57.368 69.0939 58.1878 68.2743 58.1878 67.2633V58.1871H65.4334V67.2633C65.4334 68.2743 66.2531 69.0939 67.264 69.0939H78.169C79.1799 69.0939 79.9996 68.2743 79.9996 67.2633V45.4496C80 44.4385 79.1803 43.619 78.1694 43.619ZM76.3388 65.4327H69.095V56.3564C69.095 55.3454 68.2752 54.5258 67.2644 54.5258H56.3575C55.3466 54.5258 54.5269 55.3454 54.5269 56.3564V65.4327H47.2831V56.3564C47.2831 55.3454 46.4634 54.5258 45.4525 54.5258H34.5475C33.5366 54.5258 32.7169 55.3454 32.7169 56.3564V65.4327H25.4731V56.3564C25.4731 55.3454 24.6533 54.5258 23.6425 54.5258H12.7356C11.7248 54.5258 10.905 55.3454 10.905 56.3564V65.4327H3.66124V47.2802H12.7355C13.7463 47.2802 14.5661 46.4606 14.5661 45.4496V25.472H23.6423C24.6532 25.472 25.4729 24.6525 25.4729 23.6414V14.567H54.5267V23.6414C54.5267 24.6525 55.3465 25.472 56.3573 25.472H65.4336V45.4496C65.4336 46.4606 66.2533 47.2802 67.2642 47.2802H76.3386V65.4327H76.3388Z" fill="#00D1FF"/>
</svg>
