<svg width="24" height="24" viewBox="0 0 24 24" fill="none" xmlns="http://www.w3.org/2000/svg">
<path d="M10.1383 10.6297H10.1382C9.85895 10.6297 9.59116 10.7407 9.39372 10.9381C9.19628 11.1356 9.08536 11.4034 9.08537 11.6826C9.08538 11.9618 9.19631 12.2296 9.39376 12.4271C9.59122 12.6245 9.85902 12.7355 10.1383 12.7355C10.4175 12.7355 10.6853 12.6245 10.8827 12.4271C11.0802 12.2296 11.1911 11.9618 11.1911 11.6826C11.1911 11.4034 11.0802 11.1356 10.8828 10.9381C10.6853 10.7407 10.4176 10.6297 10.1383 10.6297ZM13.8926 10.6297C13.6627 10.6102 13.4322 10.6606 13.2314 10.7743C13.0306 10.8879 12.8688 11.0596 12.7671 11.2668C12.6655 11.4739 12.6288 11.707 12.6618 11.9353C12.6948 12.1637 12.796 12.3768 12.9521 12.5467C13.1083 12.7166 13.3121 12.8354 13.5368 12.8876C13.7616 12.9398 13.9969 12.9228 14.2119 12.839C14.4269 12.7552 14.6116 12.6085 14.7418 12.418C14.872 12.2275 14.9417 12.0021 14.9417 11.7714C14.9478 11.6275 14.9255 11.4838 14.8761 11.3486C14.8267 11.2133 14.7511 11.0892 14.6537 10.9831C14.5563 10.8771 14.4389 10.7913 14.3083 10.7307C14.1777 10.67 14.0365 10.6357 13.8926 10.6297ZM18.8914 2H5.10865C4.83106 2.00066 4.55632 2.05598 4.30012 2.16283C4.04391 2.26967 3.81126 2.42593 3.61545 2.62269C3.41965 2.81945 3.26451 3.05285 3.15891 3.30957C3.05331 3.56629 2.99932 3.84129 3.00001 4.11888V18.0252C2.99933 18.3027 3.05333 18.5777 3.15894 18.8344C3.26454 19.0911 3.41968 19.3245 3.61548 19.5213C3.81129 19.718 4.04394 19.8743 4.30013 19.9811C4.55633 20.088 4.83106 20.1433 5.10865 20.144H16.7726L16.2274 18.2411L17.544 19.4651L18.7886 20.6171L21 22.5714V4.11888C21.0007 3.84129 20.9467 3.56629 20.8411 3.30957C20.7355 3.05285 20.5804 2.81945 20.3846 2.62269C20.1887 2.42593 19.9561 2.26967 19.6999 2.16283C19.4437 2.05598 19.169 2.00066 18.8914 2ZM14.9211 15.4331V15.4332C14.9211 15.4332 14.5508 14.9908 14.2422 14.6C14.9878 14.4244 15.6473 13.9909 16.104 13.376C15.7339 13.6223 15.3371 13.8259 14.9211 13.9828C14.4426 14.1871 13.9422 14.3355 13.4297 14.4251C12.5488 14.5873 11.6454 14.5838 10.7658 14.4149C10.2493 14.3138 9.74319 14.1657 9.25367 13.9726C8.99567 13.8734 8.7448 13.7565 8.50282 13.6229C8.47193 13.6022 8.44117 13.592 8.41029 13.5714C8.39481 13.5637 8.38087 13.5533 8.36915 13.5406C8.18409 13.4377 8.08106 13.3657 8.08106 13.3657C8.5213 13.9677 9.15798 14.397 9.88111 14.5794C9.57264 14.9703 9.19203 15.4331 9.19203 15.4331C8.58104 15.4496 7.97538 15.3156 7.42834 15.043C6.8813 14.7703 6.40966 14.3674 6.05494 13.8697C6.08833 11.7845 6.59475 9.73409 7.53601 7.87311C8.36436 7.22254 9.37426 6.84517 10.4263 6.79311L10.529 6.91659C9.53931 7.16149 8.61572 7.62153 7.82401 8.26398C7.82401 8.26398 8.05033 8.14057 8.43083 7.9657C9.17021 7.62818 9.95824 7.4095 10.7658 7.31775C10.8234 7.30577 10.8819 7.29886 10.9407 7.29712C11.63 7.20733 12.3275 7.20045 13.0184 7.27661C14.1049 7.40067 15.1567 7.73609 16.1144 8.26398C15.3628 7.65219 14.4899 7.20695 13.5534 6.9577L13.6973 6.79321C14.7493 6.84523 15.7592 7.2226 16.5876 7.87321C17.5289 9.73414 18.0354 11.7845 18.0688 13.8697C17.7111 14.367 17.2374 14.7694 16.6889 15.0418C16.1403 15.3143 15.5335 15.4486 14.9211 15.4331Z" fill="white"/>
</svg>