<svg width="1440" height="342" viewBox="0 0 1440 342" fill="none" xmlns="http://www.w3.org/2000/svg">
<g filter="url(#filter0_d)">
<path d="M0.17627 335.997C193.467 335.899 386.759 335.958 580.05 336.017C753.317 336.075 926.585 335.899 1099.82 335.977C1215.2 336.017 1330.58 335.899 1446 335.997" stroke="url(#paint0_linear)" stroke-width="2" stroke-miterlimit="10"/>
<path d="M0.17627 332.385C104.031 331.914 207.851 330.657 311.705 331.03C401.776 331.364 491.847 332.404 581.918 332.758C754.622 333.445 927.361 331.658 1100.06 332.502C1154.49 332.758 1208.92 333.229 1263.36 333.013C1324.24 332.777 1385.08 331.953 1445.96 332.483" stroke="url(#paint1_linear)" stroke-width="2" stroke-miterlimit="10"/>
<path d="M0.17627 328.792C104.948 327.948 209.508 325.711 314.314 326.457C405.055 327.104 495.76 329.048 586.536 329.754C758.288 331.089 930.04 327.831 1101.83 329.558C1155.87 330.108 1209.91 330.971 1263.99 330.441C1324.66 329.853 1385.29 328.145 1445.96 328.969" stroke="url(#paint2_linear)" stroke-width="2" stroke-miterlimit="10"/>
<path d="M0.17627 325.239C55.6289 324.65 111.011 322.746 166.464 322.157C217.263 321.607 268.027 321.607 318.826 322.137C410.413 323.099 501.965 325.926 593.587 327.006C677.101 328.007 760.368 326.829 843.882 326.319C930.851 325.789 1017.93 325.73 1104.86 327.124C1158.37 327.987 1211.75 329.263 1265.29 328.282C1325.54 327.182 1385.61 324.493 1445.93 325.494" stroke="url(#paint3_linear)" stroke-width="2" stroke-miterlimit="10"/>
<path d="M0.17627 321.706C56.8275 320.999 113.338 318.585 169.989 317.898C221.67 317.269 273.315 317.309 324.996 318.015C417.605 319.291 510.144 322.982 602.788 324.474C643.011 325.122 683.376 326.005 723.635 325.298C766.22 324.552 808.805 324.022 851.391 323.747C937.267 323.159 1023.35 323.159 1109.16 325.141C1161.97 326.358 1214.46 328.047 1267.37 326.496C1326.95 324.768 1386.21 320.98 1445.96 322.059" stroke="url(#paint4_linear)" stroke-width="2" stroke-miterlimit="10"/>
<path d="M0.17627 318.192C58.3082 317.407 116.229 314.521 174.36 313.755C227.134 313.068 279.872 313.186 332.646 314.089C426.418 315.699 520.05 320.214 613.822 322.138C653.587 322.962 693.529 324.003 733.329 323.178C775.738 322.314 818.147 321.725 860.557 321.411C945.093 320.822 1030.02 320.921 1114.45 323.512C1140.6 324.317 1166.48 325.946 1192.78 325.966C1218.58 325.985 1244.21 326.103 1269.95 325.004C1328.68 322.511 1386.78 317.564 1445.86 318.624" stroke="url(#paint5_linear)" stroke-width="2" stroke-miterlimit="10"/>
<path d="M0.17627 314.698C60.0356 313.873 119.648 310.536 179.507 309.731C233.55 309.005 287.522 309.24 341.565 310.34C436.606 312.264 531.436 317.584 626.478 319.979C665.82 320.98 705.374 322.158 744.751 321.255C786.878 320.293 829.041 319.645 871.238 319.35C954.294 318.761 1037.88 318.997 1120.76 322.275C1146.56 323.296 1171.91 325.259 1197.86 325.338C1223.06 325.397 1248.02 325.318 1273.12 323.865C1330.86 320.509 1387.48 314.305 1445.82 315.267" stroke="url(#paint6_linear)" stroke-width="2" stroke-miterlimit="10"/>
<path d="M0.17627 311.243C61.9745 310.418 123.491 306.629 185.289 305.825C240.741 305.098 296.124 305.471 351.541 306.767C447.957 309.024 544.057 315.09 640.438 317.996C679.392 319.173 718.593 320.489 757.583 319.487C799.393 318.427 841.238 317.74 883.118 317.466C964.552 316.935 1046.69 317.308 1127.88 321.293C1153.26 322.53 1178.08 324.847 1203.67 324.984C1228.24 325.102 1252.46 324.768 1276.82 322.903C1333.37 318.584 1388.26 311.086 1445.79 311.89" stroke="url(#paint7_linear)" stroke-width="2" stroke-miterlimit="10"/>
<path d="M0.17627 307.807C64.0544 307.002 127.65 302.821 191.564 302.036C248.532 301.329 305.43 301.84 362.328 303.332C460.155 305.903 557.629 312.715 655.385 316.131C693.987 317.485 732.835 318.918 771.473 317.858C812.93 316.72 854.422 315.993 895.915 315.758C975.622 315.287 1056.28 315.836 1135.63 320.548C1160.59 322.04 1184.78 324.69 1210.02 324.886C1233.92 325.063 1257.33 324.454 1280.88 322.157C1336.12 316.798 1388.96 307.964 1445.68 308.573" stroke="url(#paint8_linear)" stroke-width="2" stroke-miterlimit="10"/>
<path d="M0.17627 304.411C66.3105 303.665 132.092 299.071 198.262 298.325C256.817 297.658 315.336 298.325 373.821 300.033C473.128 302.939 571.977 310.418 671.143 314.383C709.392 315.914 747.888 317.446 786.208 316.327C827.278 315.129 868.383 314.383 909.523 314.167C987.467 313.775 1066.64 314.481 1144.09 319.998C1168.6 321.745 1192.14 324.748 1217.03 325.003C1240.23 325.259 1262.79 324.316 1285.46 321.588C1309.04 318.741 1332.1 314.697 1355.51 311.498C1385.15 307.454 1415.12 305.078 1445.68 305.294" stroke="url(#paint9_linear)" stroke-width="2" stroke-miterlimit="10"/>
<path d="M0.17627 301.035C68.602 300.367 136.71 295.401 205.207 294.694C265.418 294.086 325.595 294.91 385.701 296.834C486.524 300.053 586.713 308.161 687.324 312.735C725.221 314.443 763.4 316.072 801.402 314.875C842.084 313.599 882.836 312.833 923.553 312.676C999.735 312.381 1077.43 313.245 1152.91 319.566C1176.99 321.569 1199.86 324.906 1224.4 325.259C1246.86 325.573 1268.54 324.317 1290.29 321.117C1312.96 317.78 1334.92 313.127 1357.37 309.456C1386.21 304.725 1415.51 301.977 1445.65 302.056" stroke="url(#paint10_linear)" stroke-width="2" stroke-miterlimit="10"/>
<path d="M0.17627 297.697C70.9639 297.128 141.399 291.789 212.257 291.16C274.126 290.611 336.03 291.612 397.793 293.732C500.097 297.265 601.625 305.981 703.682 311.144C741.226 313.048 779.052 314.737 816.737 313.5C857.031 312.165 897.431 311.38 937.795 311.282C1012.21 311.085 1088.57 312.126 1162.07 319.232C1185.69 321.529 1207.9 325.18 1232.12 325.612C1253.87 326.005 1274.6 324.415 1295.33 320.724C1317.05 316.876 1337.84 311.615 1359.31 307.454C1387.27 302.036 1415.86 298.895 1445.54 298.816" stroke="url(#paint11_linear)" stroke-width="2" stroke-miterlimit="10"/>
<path d="M0.17627 294.399C33.3492 294.203 66.4516 292.397 99.4835 290.983C139.39 289.276 179.331 287.98 219.378 287.666C282.939 287.195 346.5 288.373 409.92 290.709C513.669 294.537 616.537 303.802 719.933 309.593C757.125 311.674 794.563 313.421 831.931 312.126C871.908 310.732 911.955 309.927 952.002 309.868C1024.76 309.75 1099.85 310.948 1171.42 318.898C1194.61 321.47 1216.19 325.435 1240.12 325.946C1261.17 326.397 1280.95 324.473 1300.62 320.331C1321.35 315.954 1340.91 310.123 1361.43 305.471C1388.43 299.346 1416.25 295.813 1445.47 295.616" stroke="url(#paint12_linear)" stroke-width="2" stroke-miterlimit="10"/>
<path d="M0.17627 291.023C34.1952 290.886 68.1437 289.001 102.057 287.548C143.408 285.762 184.795 284.427 226.288 284.172C291.47 283.779 356.688 285.134 421.729 287.705C526.924 291.847 631.061 301.604 735.797 308.102C772.636 310.379 809.652 312.185 846.702 310.83C886.397 309.378 926.162 308.553 965.963 308.533C1037.17 308.494 1111.17 309.829 1180.9 318.604C1203.71 321.47 1224.68 325.73 1248.37 326.338C1268.75 326.849 1287.5 324.611 1306.12 319.998C1325.82 315.11 1344.15 308.69 1363.65 303.567C1389.63 296.755 1416.67 292.849 1445.47 292.515" stroke="url(#paint13_linear)" stroke-width="2" stroke-miterlimit="10"/>
<path d="M0.17627 287.392C35.1823 287.333 70.1531 285.37 105.018 283.858C147.956 282.013 190.929 280.619 234.008 280.442C301.024 280.148 368.11 281.699 434.949 284.467C541.836 288.903 647.453 299.111 753.74 306.276C790.298 308.75 826.996 310.575 863.8 309.162C903.036 307.65 942.378 306.826 981.72 306.865C1050.99 306.924 1123.61 308.436 1191.09 318.055C1213.37 321.235 1233.64 325.789 1256.97 326.476C1276.68 327.065 1294.38 324.454 1311.79 319.35C1330.44 313.893 1347.47 306.885 1365.94 301.27C1390.76 293.732 1417.02 289.413 1445.37 288.942" stroke="url(#paint14_linear)" stroke-width="2" stroke-miterlimit="10"/>
<path d="M0.17627 283.799C36.2399 283.799 72.233 281.718 108.156 280.167C152.75 278.243 197.345 276.791 242.081 276.653C311.036 276.418 380.025 278.126 448.768 281.11C557.418 285.801 664.657 296.421 772.601 304.274C808.946 306.904 845.362 308.73 881.99 307.297C920.874 305.766 959.864 304.961 998.853 305.098C1066.4 305.334 1137.89 307.081 1203.18 317.662C1225 321.195 1244.6 326.044 1267.66 326.869C1286.62 327.536 1303.01 324.533 1318.98 318.938C1336.33 312.872 1351.73 305.275 1369.01 299.15C1392.31 290.866 1417.52 286.135 1445.19 285.468" stroke="url(#paint15_linear)" stroke-width="2" stroke-miterlimit="10"/>
<path d="M0.17627 280.246C37.1565 280.265 74.0662 278.067 110.905 276.437C156.981 274.396 203.091 272.884 249.343 272.747C320.025 272.531 390.813 274.356 461.283 277.537C571.66 282.503 680.379 293.516 789.875 302.094C825.974 304.921 862.037 306.747 898.488 305.275C937.02 303.704 975.657 302.919 1014.29 303.115C1049.62 303.312 1085.01 304.313 1120.09 306.649C1151.32 308.71 1183.68 311.36 1213.65 316.916C1234.94 320.842 1253.94 325.926 1276.75 326.849C1295.15 327.595 1310.35 324.238 1325.05 318.231C1341.23 311.596 1355.26 303.488 1371.48 296.892C1393.44 287.941 1417.8 282.817 1445.08 282.032" stroke="url(#paint16_linear)" stroke-width="2" stroke-miterlimit="10"/>
<path d="M0.17627 276.752C37.8968 276.771 75.582 274.416 113.162 272.708C160.612 270.549 208.062 268.939 255.689 268.782C327.922 268.546 400.26 270.45 472.211 273.846C546.419 277.341 620.626 283.092 694.198 289.492C731.284 292.711 768.124 296.677 805.245 299.818C841.062 302.86 876.738 304.686 912.907 303.155C951.121 301.526 989.476 300.701 1027.8 300.956C1062.56 301.192 1097.38 302.291 1131.86 304.804C1162.14 307.003 1193.63 309.888 1222.43 315.797C1243.19 320.057 1261.66 325.377 1284.22 326.398C1302.2 327.202 1316.38 323.571 1329.95 317.191C1345.18 310.045 1357.97 301.486 1373.38 294.439C1394.25 284.898 1417.97 279.422 1445.01 278.577" stroke="url(#paint17_linear)" stroke-width="2" stroke-miterlimit="10"/>
<path d="M0.17627 273.277C38.4961 273.277 76.7454 270.745 114.889 268.919C163.503 266.583 212.151 264.875 260.941 264.699C334.479 264.424 408.122 266.367 481.377 269.96C557.312 273.689 633.282 279.637 708.511 286.488C745.244 289.826 781.731 294.007 818.465 297.383C853.894 300.642 889.182 302.487 925.069 300.878C963.036 299.17 1001.11 298.286 1039.22 298.561C1073.48 298.817 1107.82 299.955 1141.77 302.644C1171.17 304.961 1201.87 308.043 1229.51 314.305C1249.78 318.899 1267.8 324.434 1290.11 325.534C1307.77 326.398 1321.1 322.53 1333.72 315.876C1348.1 308.278 1359.95 299.327 1374.68 291.907C1394.67 281.836 1417.94 276.104 1444.94 275.24" stroke="url(#paint18_linear)" stroke-width="2" stroke-miterlimit="10"/>
<path d="M0.17627 269.881C38.8839 269.822 77.521 267.113 116.017 265.17C165.582 262.657 215.218 260.831 265.031 260.596C339.59 260.242 414.326 262.186 488.569 265.994C566.16 269.959 643.787 276.084 720.603 283.387C756.949 286.842 792.977 291.239 829.252 294.851C864.258 298.326 899.053 300.21 934.588 298.502C972.379 296.677 1010.35 295.715 1048.28 295.99C1082.16 296.225 1116.07 297.403 1149.59 300.21C1178.22 302.605 1208.22 305.864 1234.87 312.42C1254.72 317.308 1272.31 323.08 1294.45 324.218C1311.9 325.121 1324.52 321.117 1336.33 314.246C1350.08 306.276 1361.08 296.971 1375.32 289.237C1394.64 278.715 1417.69 272.786 1444.77 271.962" stroke="url(#paint19_linear)" stroke-width="2" stroke-miterlimit="10"/>
<path d="M0.17627 266.504C39.0249 266.367 77.8382 263.442 116.475 261.361C166.781 258.652 217.193 256.689 267.745 256.375C343.045 255.904 418.521 257.847 493.504 261.832C572.647 266.053 651.93 272.315 730.192 280.089C766.079 283.642 801.543 288.235 837.325 292.103C871.837 295.813 906.138 297.697 941.215 295.891C978.971 293.928 1016.9 292.868 1054.83 293.084C1088.43 293.281 1122.1 294.458 1155.31 297.383C1183.3 299.837 1212.77 303.233 1238.5 310.065C1257.96 315.228 1275.31 321.195 1297.34 322.393C1314.61 323.335 1326.7 319.271 1337.95 312.224C1351.21 303.94 1361.57 294.36 1375.42 286.351C1394.32 275.456 1417.3 269.39 1444.59 268.664" stroke="url(#paint20_linear)" stroke-width="2" stroke-miterlimit="10"/>
<path d="M0.17627 263.187C38.9544 262.951 77.662 259.791 116.158 257.573C166.957 254.648 217.898 252.547 268.979 252.135C344.702 251.526 420.601 253.431 495.972 257.573C576.595 262.029 657.395 268.428 737.066 276.654C772.389 280.305 807.254 285.075 842.401 289.178C876.35 293.143 910.051 295.008 944.67 293.065C982.531 290.945 1020.64 289.728 1058.71 289.885C1092.17 290.022 1125.73 291.161 1158.8 294.144C1186.4 296.637 1215.27 300.191 1240.44 307.199C1259.69 312.578 1276.75 318.781 1298.82 319.978C1316.02 320.921 1327.69 316.975 1338.58 309.79C1351.49 301.27 1361.39 291.475 1375.04 283.269C1393.72 272.04 1416.88 265.955 1444.45 265.405" stroke="url(#paint21_linear)" stroke-width="2" stroke-miterlimit="10"/>
<path d="M0.17627 259.928C38.6018 259.555 76.9217 256.159 115.065 253.804C166.111 250.663 217.298 248.385 268.662 247.855C344.455 247.07 420.425 248.935 495.831 253.215C577.829 257.887 660.074 264.424 741.014 273.1C775.738 276.83 809.828 281.777 844.305 286.135C877.619 290.336 910.651 292.162 944.705 290.101C982.884 287.784 1021.27 286.41 1059.7 286.449C1093.23 286.488 1126.89 287.568 1159.99 290.591C1187.35 293.084 1215.98 296.696 1240.72 303.92C1259.83 309.515 1276.86 315.915 1299.03 317.112C1316.2 318.035 1327.66 314.344 1338.34 307.042C1351.06 298.365 1360.65 288.412 1374.23 280.089C1392.94 268.585 1416.42 262.598 1444.38 262.304" stroke="url(#paint22_linear)" stroke-width="2" stroke-miterlimit="10"/>
<path d="M0.17627 255.393C37.1917 255.256 74.1367 251.683 110.835 249.131C159.625 245.735 208.591 243.164 257.769 242.3C331.623 241.004 405.513 242.928 478.91 247.482C557.911 252.39 637.054 258.672 715.033 267.368C751.872 271.471 788.077 276.987 824.74 281.522C860.204 285.899 895.563 287.745 931.767 285.507C970.334 283.131 1009.08 281.345 1047.89 280.776C1081.84 280.265 1115.96 280.619 1149.66 283.033C1177.44 285.016 1206.77 288.196 1231.77 295.558C1251.23 301.29 1268.96 307.571 1291.42 308.906C1308.73 309.927 1321.28 306.551 1333.19 299.68C1346.97 291.71 1357.83 282.346 1372.15 274.631C1392.2 263.854 1416.28 258.299 1444.17 257.945" stroke="url(#paint23_linear)" stroke-width="2" stroke-miterlimit="10"/>
<path d="M0.17627 250.741C35.5348 250.682 70.7172 246.796 105.582 243.91C151.552 240.102 197.698 237.059 244.126 235.626C315.724 233.407 386.97 235.194 458.04 240.317C533.657 245.775 609.274 251.919 683.834 260.871C723.635 265.641 762.73 272.021 802.425 277.046C840.603 281.895 879.346 284.329 918.371 281.718C957.255 279.127 996.245 276.693 1035.34 275.201C1069.64 273.905 1104.22 273.218 1138.53 274.671C1166.76 275.868 1196.59 278.322 1222.11 285.566C1242.06 291.22 1260.39 297.305 1283.17 298.66C1300.58 299.7 1314.37 296.893 1327.69 290.69C1342.64 283.74 1354.98 275.221 1370.14 268.389C1391.64 258.692 1416.32 253.784 1444.03 253.47" stroke="url(#paint24_linear)" stroke-width="2" stroke-miterlimit="10"/>
<path d="M0.17627 246.148C33.8075 246.049 67.1919 241.77 100.153 238.452C143.197 234.134 186.487 230.561 230.06 228.48C298.591 225.202 366.136 226.753 434.103 232.347C507.429 238.393 580.684 244.656 652.917 254C695.221 259.477 736.749 266.603 779.017 272.099C819.311 277.341 861.473 280.756 902.719 277.753C942.66 274.847 982.531 271.687 1022.54 269.213C1057.73 267.054 1093.23 265.287 1128.69 265.876C1156.96 266.328 1186.68 268.153 1212.38 275.181C1232.4 280.658 1250.98 286.41 1273.61 287.764C1291.24 288.824 1306.43 286.744 1321.31 281.345C1337.95 275.319 1352.3 267.525 1369.01 261.499C1391.71 253.293 1416.7 249.288 1443.74 249.092" stroke="url(#paint25_linear)" stroke-width="2" stroke-miterlimit="10"/>
<path d="M0.17627 241.279C32.2916 241.181 63.9134 236.548 95.1121 232.838C135.371 228.029 175.947 223.965 216.84 221.236C250.894 218.979 285.231 217.86 319.532 218.449C351.294 218.998 382.387 221.492 413.692 224.397C483.316 230.875 552.835 237.294 621.401 246.756C666.349 252.959 710.521 260.89 755.574 266.877C798.3 272.551 843.741 276.614 887.56 273.257C927.925 270.156 968.078 266.347 1008.37 262.991C1044.01 260.026 1079.97 257.258 1116.07 256.885C1144.8 256.591 1175.05 257.69 1201.42 264.679C1221.9 270.116 1241.11 275.652 1264.06 277.026C1282.11 278.126 1298.57 276.496 1314.82 271.962C1332.7 266.976 1348.77 260.223 1366.51 255.079C1390.62 248.091 1416.28 244.656 1443.46 244.518" stroke="url(#paint26_linear)" stroke-width="2" stroke-miterlimit="10"/>
<path d="M0.17627 236.509C30.7757 236.332 60.5996 231.346 90.0005 227.145C127.474 221.805 165.265 217.192 203.479 213.757C235.348 210.891 267.604 209.261 299.931 209.634C331.447 209.988 362.011 212.854 392.893 216.054C458.745 222.885 524.421 229.599 589.216 239.159C636.736 246.167 683.411 254.844 731.179 261.322C776.302 267.427 824.881 272.119 871.238 268.448C912.202 265.209 952.778 260.792 993.46 256.65C1029.73 252.939 1066.29 249.229 1103.17 247.993C1132.53 246.991 1163.41 247.482 1190.56 254.49C1211.57 259.928 1231.56 265.287 1254.89 266.74C1273.51 267.898 1291.21 266.642 1308.69 262.912C1327.73 258.868 1345.42 253.155 1364.25 248.837C1389.56 243.006 1415.86 240.062 1443.29 239.964" stroke="url(#paint27_linear)" stroke-width="2" stroke-miterlimit="10"/>
<path d="M0.17627 231.896C29.3656 231.621 57.3563 226.242 84.9945 221.531C119.683 215.622 154.795 210.459 190.33 206.297C220.048 202.823 250.224 200.663 280.648 200.762C311.882 200.879 341.811 204.118 372.305 207.593C434.244 214.66 495.866 221.825 556.783 231.346C606.666 239.159 655.808 248.542 706.149 255.472C753.529 261.989 805.139 267.27 853.858 263.285C895.492 259.869 936.632 254.844 977.737 249.877C1014.75 245.401 1051.94 240.729 1089.7 238.59C1119.74 236.882 1151.39 236.666 1179.42 243.713C1201.03 249.151 1221.79 254.294 1245.62 255.825C1264.91 257.062 1283.77 256.257 1302.49 253.43C1322.65 250.388 1341.97 245.853 1361.92 242.418C1388.36 237.844 1415.33 235.488 1443.04 235.508" stroke="url(#paint28_linear)" stroke-width="2" stroke-miterlimit="10"/>
<path d="M0.17627 227.439C28.167 227.106 54.4656 221.393 80.4469 216.152C112.527 209.693 145.101 204 178.097 199.112C205.771 195.01 234.008 192.34 262.704 192.242C293.656 192.124 322.881 195.697 352.916 199.426C410.695 206.592 468.052 214.267 524.809 223.651C576.842 232.249 628.17 242.26 680.873 249.563C730.474 256.453 784.587 262.107 835.668 257.926C878.148 254.451 919.957 248.876 961.626 243.203C999.523 238.04 1037.53 232.504 1076.27 229.559C1107.19 227.223 1139.65 226.438 1168.77 233.623C1191.02 239.1 1212.7 244.125 1237.09 245.774C1257.08 247.129 1277.03 246.658 1296.85 244.655C1318.07 242.516 1338.8 239.08 1359.84 236.45C1387.16 233.034 1414.73 231.189 1442.76 231.228" stroke="url(#paint29_linear)" stroke-width="2" stroke-miterlimit="10"/>
<path d="M0.17627 223.101C27.0742 222.63 51.8216 216.623 76.2871 210.93C106.04 204 136.323 197.777 167.063 192.281C192.939 187.648 219.484 184.527 246.734 184.193C277.757 183.8 306.876 187.903 336.805 191.849C395.184 199.564 452.822 208.633 510.038 218.704C561.154 227.695 611.883 237.569 663.987 244.655C713.235 251.349 766.361 256.493 816.984 252.449C860.486 248.974 903.353 243.321 946.045 237.628C985.492 232.367 1025.08 226.752 1065.38 223.867C1097.63 221.55 1131.51 220.883 1161.72 228.578C1184.57 234.389 1207.37 239.453 1232.44 241.318C1252.99 242.849 1273.61 242.319 1293.99 240.396C1315.85 238.334 1337.21 234.997 1358.86 232.386C1386.42 229.069 1414.2 227.145 1442.44 227.066" stroke="url(#paint30_linear)" stroke-width="2" stroke-miterlimit="10"/>
<path d="M0.17627 218.94C26.3691 218.449 49.918 212.285 73.2554 206.199C101.14 198.936 129.519 192.262 158.391 186.255C182.856 181.17 208.097 177.735 234.29 177.264C265.348 176.694 294.502 181.249 324.396 185.371C384.009 193.577 442.458 204.06 500.661 214.915C549.838 224.083 599.016 233.584 649.568 240.2C697.583 246.481 748.735 250.8 797.912 246.874C842.401 243.321 886.185 237.589 929.934 231.915C970.933 226.595 1012.07 220.981 1053.92 218.194C1087.62 215.956 1122.49 215.504 1153.93 223.592C1177.41 229.638 1201.13 234.84 1226.9 236.882C1248.06 238.551 1269.42 238.079 1290.46 236.234C1313.03 234.251 1335.13 230.953 1357.48 228.362C1385.44 225.104 1413.57 223.14 1442.19 223.082" stroke="url(#paint31_linear)" stroke-width="2" stroke-miterlimit="10"/>
<path d="M0.17627 214.464C25.8051 214.464 48.4726 208.064 70.7172 201.625C97.4035 193.91 124.513 186.588 152.151 179.953C175.524 174.339 199.919 170.53 225.512 170.157C255.724 169.725 284.42 174.476 313.362 178.638C421.447 194.166 523.293 221.197 631.977 235.351C679.745 241.573 729.839 245.087 778.664 241.043C824.07 237.274 868.806 231.385 913.506 225.633C955.845 220.196 998.395 214.522 1041.65 211.853C1077.29 209.654 1112.65 209.792 1145.68 218.292C1169.76 224.475 1194.08 229.815 1220.45 231.974C1242.34 233.78 1264.48 233.466 1286.38 231.699C1309.68 229.815 1332.52 226.576 1355.54 223.965C1384.06 220.745 1412.72 218.763 1441.84 218.704" stroke="url(#paint32_linear)" stroke-width="2" stroke-miterlimit="10"/>
<path d="M0.17627 209.909C25.382 210.381 47.2388 203.235 68.2142 196.266C94.0898 187.668 120.283 179.286 147.004 171.551C169.319 165.073 193.044 160.44 218.426 160.087C247.299 159.675 275.148 164.661 302.645 168.921C408.228 185.253 506.23 214.346 612.659 229.01C660.92 235.665 710.838 238.747 760.192 234.526C806.584 230.561 852.272 224.495 898.03 218.704C941.673 213.188 985.598 207.514 1030.23 205.1C1068.09 203.039 1103.94 204.04 1138.81 213.07C1163.38 219.411 1188.3 224.888 1215.2 227.204C1237.76 229.147 1260.61 229.01 1283.2 227.302C1307.03 225.496 1330.41 222.237 1353.99 219.607C1382.93 216.368 1412.05 214.326 1441.59 214.248" stroke="url(#paint33_linear)" stroke-width="2" stroke-miterlimit="10"/>
<path d="M0.17627 205.649C24.6065 206.984 47.3093 197.66 66.2048 190.318C91.4458 180.522 116.863 170.825 142.88 161.677C164.172 154.178 187.333 148.328 212.857 147.72C240.53 147.052 267.393 152.431 293.48 156.907C396.453 174.535 490.261 206.003 594.468 221.55C643.047 228.814 692.788 231.758 742.706 227.439C790.086 223.337 836.796 217.173 883.577 211.421C928.524 205.885 973.859 200.31 1019.86 198.209C1039.43 197.326 1059.24 197.071 1078.74 198.406C1098.13 199.741 1115.43 203.294 1133.03 207.907C1180.37 220.294 1228.45 226.851 1280.88 223.14C1305.13 221.433 1328.89 218.174 1352.83 215.504C1382.05 212.245 1411.45 210.145 1441.31 210.086" stroke="url(#paint34_linear)" stroke-width="2" stroke-miterlimit="10"/>
<path d="M0.17627 201.724C24.677 203.058 47.0978 191.967 64.6537 183.978C89.4011 172.729 114.254 161.481 139.672 150.723C159.977 142.125 182.68 134.724 208.626 133.625C235.242 132.486 261.047 138.395 285.724 143.146C386.054 162.482 475.349 196.561 577.441 213.325C626.231 221.335 675.832 224.377 726.243 220.019C774.61 215.838 822.307 209.635 870.145 203.942C916.432 198.445 963.177 192.988 1010.52 191.28C1030.76 190.554 1051.24 190.515 1071.37 192.163C1091.78 193.832 1109.79 197.994 1128.3 202.901C1176.46 215.681 1225.78 222.807 1279.29 219.273C1303.79 217.664 1327.83 214.405 1352.02 211.716C1381.42 208.437 1410.92 206.317 1440.92 206.239" stroke="url(#paint35_linear)" stroke-width="2" stroke-miterlimit="10"/>
<path d="M0.17627 198.112C24.959 199.23 47.2388 186.039 63.5256 177.421C87.9205 164.524 112.245 151.548 137.239 139.023C156.593 129.306 178.908 120.119 205.524 118.274C231.223 116.507 255.83 123.005 279.202 128.148C376.782 149.604 461.318 186.431 561.577 204.59C610.438 213.443 660.003 216.78 710.908 212.422C760.227 208.182 808.946 201.998 857.807 196.423C905.433 191.005 953.589 185.725 1002.24 184.429C1023.18 183.879 1044.29 184.076 1065.02 186.039C1086.46 188.061 1105.18 192.831 1124.6 198.092C1173.43 211.284 1223.91 219.057 1278.48 215.681C1303.16 214.169 1327.34 210.911 1351.63 208.202C1381.06 204.923 1410.61 202.764 1440.64 202.705" stroke="url(#paint36_linear)" stroke-width="2" stroke-miterlimit="10"/>
<path d="M0.17627 194.853C25.4525 195.579 47.5208 180.071 62.6795 170.864C86.8277 156.181 110.729 141.34 135.406 126.951C153.949 116.134 175.912 104.964 203.303 102.236C228.297 99.7427 251.529 106.869 273.668 112.463C368.463 136.432 448.099 175.968 546.771 195.697C595.632 205.454 645.268 209.242 696.702 204.904C746.972 200.664 796.643 194.5 846.526 189.062C895.457 183.742 944.987 178.658 994.94 177.814C1016.55 177.441 1038.34 177.912 1059.59 180.189C1082.01 182.603 1101.44 188.002 1121.78 193.577C1171.2 207.161 1222.71 215.661 1278.23 212.462C1302.98 211.048 1327.2 207.809 1351.56 205.081C1380.92 201.783 1410.36 199.604 1440.36 199.545" stroke="url(#paint37_linear)" stroke-width="2" stroke-miterlimit="10"/>
<path d="M0.17627 191.928C26.0166 192.124 47.9086 174.201 62.0802 164.406C86.0874 147.877 109.601 131.073 134.066 114.78C151.975 102.864 173.55 89.6721 201.787 85.9031C226.288 82.6247 247.933 90.3592 268.909 96.4839C360.813 123.299 435.478 165.427 533.058 186.804C581.848 197.483 631.66 201.841 683.693 197.523C734.88 193.282 785.468 187.138 836.338 181.857C886.503 176.636 937.408 171.787 988.56 171.394C1010.8 171.218 1033.26 171.944 1055.05 174.555C1078.38 177.362 1098.55 183.389 1119.74 189.317C1169.62 203.294 1222.11 212.56 1278.48 209.537C1303.19 208.202 1327.41 205.002 1351.7 202.273C1380.92 198.975 1410.18 196.777 1440.04 196.718" stroke="url(#paint38_linear)" stroke-width="2" stroke-miterlimit="10"/>
<path d="M0.17627 189.336C11.9155 189.16 22.1035 184.272 30.0354 179.953C41.9861 173.436 51.9274 165.799 61.6572 158.261C85.5586 139.848 108.684 121.081 133.079 102.883C150.494 89.9073 171.716 74.7132 200.765 69.8056C213.879 67.5873 224.349 68.451 236.441 71.7882C246.17 74.4776 255.548 77.6185 264.819 80.7398C308.462 95.4431 346.958 114.426 387.111 131.819C428.533 149.761 472 166.702 520.473 178.225C569.227 189.827 619.357 194.794 671.989 190.495C724.022 186.254 775.491 180.149 827.243 175.026C878.641 169.922 930.78 165.269 983.13 165.328C1006.01 165.348 1029.03 166.329 1051.34 169.274C1075.6 172.493 1096.43 179.128 1118.43 185.391C1168.7 199.741 1222.04 209.772 1279.22 206.925C1303.86 205.689 1327.97 202.508 1352.16 199.76C1381.13 196.462 1410.18 194.224 1439.83 194.165" stroke="url(#paint39_linear)" stroke-width="2" stroke-miterlimit="10"/>
<path d="M0.17627 187.138C12.1622 186.706 22.2093 181.131 29.7886 176.518C41.7746 169.254 51.6454 160.892 61.3399 152.667C85.1356 132.408 107.909 111.737 132.304 91.6939C149.331 77.6776 170.201 60.599 200.095 54.5528C213.068 51.9223 223.15 52.5701 234.995 56.3392C244.02 59.2052 252.692 62.5425 261.223 65.8404C302.681 81.9179 338.639 102.078 376.853 120.394C417.288 139.769 460.296 157.908 508.98 170.354C557.735 182.819 608.358 188.414 661.66 184.095C714.434 179.835 766.714 173.75 819.276 168.744C871.802 163.738 925.14 159.282 978.583 159.773C1002.03 159.989 1025.65 161.226 1048.42 164.484C1073.52 168.096 1095.02 175.34 1117.83 181.936C1168.42 196.62 1222.53 207.416 1280.35 204.727C1304.85 203.588 1328.82 200.408 1352.86 197.64C1381.59 194.323 1410.32 192.065 1439.73 192.006" stroke="url(#paint40_linear)" stroke-width="2" stroke-miterlimit="10"/>
<path d="M0.17627 185.293C12.3737 184.664 22.2445 178.441 29.5771 173.593C41.5983 165.623 51.4339 156.612 61.0226 147.72C84.783 125.714 107.133 103.217 131.528 81.427C148.273 66.4685 168.79 47.6231 199.39 40.5168C204.678 39.2998 210.389 38.3967 216.135 38.3771C223.115 38.3575 227.98 40.1439 233.55 42.1854C241.94 45.2282 249.907 48.7224 257.733 52.1971C297.005 69.6487 330.601 90.8693 367.123 110.029C406.641 130.759 449.368 150.075 498.44 163.365C547.371 176.616 598.522 182.799 652.635 178.422C706.114 174.103 759.064 168.037 812.366 163.13C865.915 158.202 920.381 153.923 974.811 154.806C998.783 155.199 1022.93 156.651 1046.09 160.244C1071.97 164.249 1094.11 172.062 1117.66 178.991C1168.45 193.969 1223.24 205.512 1281.65 202.98C1306.01 201.92 1329.77 198.759 1353.64 195.972C1382.05 192.634 1410.47 190.338 1439.58 190.298" stroke="url(#paint41_linear)" stroke-width="2" stroke-miterlimit="10"/>
<path d="M0.17627 183.84C12.5148 183.094 22.2798 176.321 29.3656 171.316C41.4573 162.737 51.1871 153.138 60.7054 143.656C84.3952 120.06 106.287 95.8948 130.717 72.5344C147.216 56.7514 167.416 36.3159 198.65 28.2674C203.797 26.9521 209.437 25.9313 215.148 25.8724C222.093 25.8135 226.781 27.6981 232.105 29.8771C239.895 33.0769 247.193 36.7085 254.349 40.3206C291.47 59.1071 322.916 81.2111 357.992 101.136C396.735 123.142 439.356 143.519 488.957 157.555C538.205 171.512 590.097 178.147 645.056 173.652C699.099 169.235 752.648 163.11 806.549 158.261C861.015 153.354 916.467 149.192 971.779 150.429C996.245 150.978 1020.82 152.647 1044.36 156.514C1070.95 160.872 1093.65 169.235 1117.87 176.478C1168.81 191.712 1224.19 203.922 1283.03 201.547C1307.21 200.565 1330.79 197.405 1354.41 194.578C1382.47 191.221 1410.57 188.865 1439.34 188.826" stroke="url(#paint42_linear)" stroke-width="2" stroke-miterlimit="10"/>
<path d="M0.17627 182.76C12.6205 182.073 22.2798 174.81 29.0836 169.725C41.1753 160.656 50.7993 150.566 60.2471 140.594C83.8665 115.643 105.23 90.0055 129.625 65.2709C139.213 55.5538 149.366 45.9348 161.352 37.0814C171.152 29.8377 182.645 22.3388 197.522 18.2556C202.563 16.8815 208.097 15.8018 213.773 15.7625C220.718 15.7036 225.23 17.6471 230.342 19.9635C237.604 23.2614 244.267 27.0109 250.824 30.7407C285.865 50.7246 315.407 73.555 349.32 94.1475C387.464 117.312 430.225 138.611 480.496 153.275C530.343 167.821 583.046 174.77 638.993 170.059C693.493 165.465 747.466 159.262 801.896 154.413C857.137 149.486 913.471 145.383 969.523 146.915C994.376 147.582 1019.37 149.427 1043.2 153.55C1070.45 158.261 1093.65 167.114 1118.5 174.653C1169.48 190.102 1225.42 202.901 1284.54 200.663C1308.55 199.76 1331.92 196.6 1355.33 193.714C1383.07 190.318 1410.82 187.923 1439.27 187.844" stroke="url(#paint43_linear)" stroke-width="2" stroke-miterlimit="10"/>
<path d="M0.17627 182.093C12.5853 181.641 22.2093 173.985 28.6605 168.96C40.7523 159.557 50.2705 149.094 59.542 138.768C83.0204 112.699 103.749 85.8833 128.109 60.0494C137.662 49.9004 147.815 39.8495 159.872 30.5446C169.496 23.1439 180.847 15.2524 195.794 11.0318C207.815 7.63571 217.827 7.91054 227.98 12.9752C234.749 16.3517 240.883 20.1404 246.875 23.9487C279.943 44.9535 307.933 68.2943 340.93 89.3972C378.721 113.562 421.835 135.627 472.952 150.743C498.757 158.359 526.712 164.504 555.408 167.645C581.742 170.53 608.041 170.059 634.41 167.743C689.193 162.914 743.517 156.534 798.265 151.607C854.141 146.581 911.18 142.478 967.901 144.206C993.107 144.971 1018.38 146.954 1042.46 151.292C1070.28 156.298 1093.89 165.623 1119.31 173.397C1170.29 189.003 1226.62 202.273 1285.95 200.153C1309.78 199.309 1332.94 196.129 1356.18 193.204C1383.6 189.749 1410.99 187.295 1439.16 187.197" stroke="url(#paint44_linear)" stroke-width="2" stroke-miterlimit="10"/>
<path d="M0.17627 181.857C12.3385 181.896 22.2445 173.809 28.2375 169.058C40.3645 159.439 49.7065 148.701 58.837 138.14C81.4693 111.933 101.14 84.941 124.583 58.9304C134.631 47.7606 145.383 36.6497 158.32 26.4221C167.698 19.0214 178.873 10.9336 193.926 6.90933C205.101 3.92548 215.183 4.27883 224.278 9.10796C231.047 12.6807 237.04 16.6854 242.857 20.7489C273.738 42.3229 300.284 65.6833 332.152 86.8648C369.908 111.953 413.692 134.665 465.901 150.095C493.081 158.124 522.799 164.582 553.152 167.547C580.12 170.197 606.772 169.254 633.599 166.702C687.959 161.54 741.86 155.022 796.291 149.997C852.025 144.854 908.888 140.731 965.504 142.439C991.063 143.205 1016.73 145.227 1041.09 149.683C1069.43 154.846 1093.3 164.484 1119.14 172.493C1170.22 188.316 1227.19 202.136 1286.9 200.173C1310.66 199.387 1333.76 196.188 1356.85 193.184C1384.03 189.651 1411.17 187.099 1439.16 186.961" stroke="url(#paint45_linear)" stroke-width="2" stroke-miterlimit="10"/>
</g>
<defs>
<filter id="filter0_d" x="-3.88403" y="0" width="1453.88" height="341.029" filterUnits="userSpaceOnUse" color-interpolation-filters="sRGB">
<feFlood flood-opacity="0" result="BackgroundImageFix"/>
<feColorMatrix in="SourceAlpha" type="matrix" values="0 0 0 0 0 0 0 0 0 0 0 0 0 0 0 0 0 0 127 0"/>
<feOffset/>
<feGaussianBlur stdDeviation="2"/>
<feColorMatrix type="matrix" values="0 0 0 0 0.0823529 0 0 0 0 0.756863 0 0 0 0 1 0 0 0 1 0"/>
<feBlend mode="normal" in2="BackgroundImageFix" result="effect1_dropShadow"/>
<feBlend mode="normal" in="SourceGraphic" in2="effect1_dropShadow" result="shape"/>
</filter>
<linearGradient id="paint0_linear" x1="0.161005" y1="335.986" x2="1445.97" y2="335.986" gradientUnits="userSpaceOnUse">
<stop stop-color="#ED1EFF"/>
<stop offset="1" stop-color="#00D1FF"/>
</linearGradient>
<linearGradient id="paint1_linear" x1="0.149654" y1="332.009" x2="1445.99" y2="332.009" gradientUnits="userSpaceOnUse">
<stop stop-color="#ED1EFF"/>
<stop offset="1" stop-color="#00D1FF"/>
</linearGradient>
<linearGradient id="paint2_linear" x1="0.140347" y1="328.459" x2="1445.99" y2="328.459" gradientUnits="userSpaceOnUse">
<stop stop-color="#ED1EFF"/>
<stop offset="1" stop-color="#00D1FF"/>
</linearGradient>
<linearGradient id="paint3_linear" x1="0.133226" y1="325.186" x2="1445.98" y2="325.186" gradientUnits="userSpaceOnUse">
<stop stop-color="#ED1EFF"/>
<stop offset="1" stop-color="#00D1FF"/>
</linearGradient>
<linearGradient id="paint4_linear" x1="0.12829" y1="322.273" x2="1445.96" y2="322.273" gradientUnits="userSpaceOnUse">
<stop stop-color="#ED1EFF"/>
<stop offset="1" stop-color="#00D1FF"/>
</linearGradient>
<linearGradient id="paint5_linear" x1="0.12547" y1="319.653" x2="1445.93" y2="319.653" gradientUnits="userSpaceOnUse">
<stop stop-color="#ED1EFF"/>
<stop offset="1" stop-color="#00D1FF"/>
</linearGradient>
<linearGradient id="paint6_linear" x1="0.124589" y1="317.333" x2="1445.88" y2="317.333" gradientUnits="userSpaceOnUse">
<stop stop-color="#ED1EFF"/>
<stop offset="1" stop-color="#00D1FF"/>
</linearGradient>
<linearGradient id="paint7_linear" x1="0.125435" y1="315.239" x2="1445.83" y2="315.239" gradientUnits="userSpaceOnUse">
<stop stop-color="#ED1EFF"/>
<stop offset="1" stop-color="#00D1FF"/>
</linearGradient>
<linearGradient id="paint8_linear" x1="0.127691" y1="313.328" x2="1445.77" y2="313.328" gradientUnits="userSpaceOnUse">
<stop stop-color="#ED1EFF"/>
<stop offset="1" stop-color="#00D1FF"/>
</linearGradient>
<linearGradient id="paint9_linear" x1="0.131146" y1="311.565" x2="1445.7" y2="311.565" gradientUnits="userSpaceOnUse">
<stop stop-color="#ED1EFF"/>
<stop offset="1" stop-color="#00D1FF"/>
</linearGradient>
<linearGradient id="paint10_linear" x1="0.135447" y1="309.913" x2="1445.63" y2="309.913" gradientUnits="userSpaceOnUse">
<stop stop-color="#ED1EFF"/>
<stop offset="1" stop-color="#00D1FF"/>
</linearGradient>
<linearGradient id="paint11_linear" x1="0.140347" y1="308.335" x2="1445.56" y2="308.335" gradientUnits="userSpaceOnUse">
<stop stop-color="#ED1EFF"/>
<stop offset="1" stop-color="#00D1FF"/>
</linearGradient>
<linearGradient id="paint12_linear" x1="0.145635" y1="306.797" x2="1445.5" y2="306.797" gradientUnits="userSpaceOnUse">
<stop stop-color="#ED1EFF"/>
<stop offset="1" stop-color="#00D1FF"/>
</linearGradient>
<linearGradient id="paint13_linear" x1="0.151346" y1="305.225" x2="1445.43" y2="305.225" gradientUnits="userSpaceOnUse">
<stop stop-color="#ED1EFF"/>
<stop offset="1" stop-color="#00D1FF"/>
</linearGradient>
<linearGradient id="paint14_linear" x1="0.157832" y1="303.484" x2="1445.35" y2="303.484" gradientUnits="userSpaceOnUse">
<stop stop-color="#ED1EFF"/>
<stop offset="1" stop-color="#00D1FF"/>
</linearGradient>
<linearGradient id="paint15_linear" x1="0.162204" y1="301.779" x2="1445.27" y2="301.779" gradientUnits="userSpaceOnUse">
<stop stop-color="#ED1EFF"/>
<stop offset="1" stop-color="#00D1FF"/>
</linearGradient>
<linearGradient id="paint16_linear" x1="0.160371" y1="299.831" x2="1445.18" y2="299.831" gradientUnits="userSpaceOnUse">
<stop stop-color="#ED1EFF"/>
<stop offset="1" stop-color="#00D1FF"/>
</linearGradient>
<linearGradient id="paint17_linear" x1="0.160441" y1="297.631" x2="1445.07" y2="297.631" gradientUnits="userSpaceOnUse">
<stop stop-color="#ED1EFF"/>
<stop offset="1" stop-color="#00D1FF"/>
</linearGradient>
<linearGradient id="paint18_linear" x1="0.162168" y1="295.169" x2="1444.96" y2="295.169" gradientUnits="userSpaceOnUse">
<stop stop-color="#ED1EFF"/>
<stop offset="1" stop-color="#00D1FF"/>
</linearGradient>
<linearGradient id="paint19_linear" x1="0.158361" y1="292.435" x2="1444.83" y2="292.435" gradientUnits="userSpaceOnUse">
<stop stop-color="#ED1EFF"/>
<stop offset="1" stop-color="#00D1FF"/>
</linearGradient>
<linearGradient id="paint20_linear" x1="0.152756" y1="289.415" x2="1444.69" y2="289.415" gradientUnits="userSpaceOnUse">
<stop stop-color="#ED1EFF"/>
<stop offset="1" stop-color="#00D1FF"/>
</linearGradient>
<linearGradient id="paint21_linear" x1="0.145282" y1="286.099" x2="1444.54" y2="286.099" gradientUnits="userSpaceOnUse">
<stop stop-color="#ED1EFF"/>
<stop offset="1" stop-color="#00D1FF"/>
</linearGradient>
<linearGradient id="paint22_linear" x1="0.135729" y1="282.473" x2="1444.38" y2="282.473" gradientUnits="userSpaceOnUse">
<stop stop-color="#ED1EFF"/>
<stop offset="1" stop-color="#00D1FF"/>
</linearGradient>
<linearGradient id="paint23_linear" x1="0.152721" y1="275.494" x2="1444.19" y2="275.494" gradientUnits="userSpaceOnUse">
<stop stop-color="#ED1EFF"/>
<stop offset="1" stop-color="#00D1FF"/>
</linearGradient>
<linearGradient id="paint24_linear" x1="0.157586" y1="266.779" x2="1443.98" y2="266.779" gradientUnits="userSpaceOnUse">
<stop stop-color="#ED1EFF"/>
<stop offset="1" stop-color="#00D1FF"/>
</linearGradient>
<linearGradient id="paint25_linear" x1="0.154342" y1="257.417" x2="1443.74" y2="257.417" gradientUnits="userSpaceOnUse">
<stop stop-color="#ED1EFF"/>
<stop offset="1" stop-color="#00D1FF"/>
</linearGradient>
<linearGradient id="paint26_linear" x1="0.153249" y1="247.839" x2="1443.49" y2="247.839" gradientUnits="userSpaceOnUse">
<stop stop-color="#ED1EFF"/>
<stop offset="1" stop-color="#00D1FF"/>
</linearGradient>
<linearGradient id="paint27_linear" x1="0.146269" y1="239.648" x2="1443.23" y2="239.648" gradientUnits="userSpaceOnUse">
<stop stop-color="#ED1EFF"/>
<stop offset="1" stop-color="#00D1FF"/>
</linearGradient>
<linearGradient id="paint28_linear" x1="0.136681" y1="232.713" x2="1442.96" y2="232.713" gradientUnits="userSpaceOnUse">
<stop stop-color="#ED1EFF"/>
<stop offset="1" stop-color="#00D1FF"/>
</linearGradient>
<linearGradient id="paint29_linear" x1="0.129101" y1="225.798" x2="1442.7" y2="225.798" gradientUnits="userSpaceOnUse">
<stop stop-color="#ED1EFF"/>
<stop offset="1" stop-color="#00D1FF"/>
</linearGradient>
<linearGradient id="paint30_linear" x1="0.115" y1="219.025" x2="1442.44" y2="219.025" gradientUnits="userSpaceOnUse">
<stop stop-color="#ED1EFF"/>
<stop offset="1" stop-color="#00D1FF"/>
</linearGradient>
<linearGradient id="paint31_linear" x1="0.11151" y1="212.797" x2="1442.17" y2="212.797" gradientUnits="userSpaceOnUse">
<stop stop-color="#ED1EFF"/>
<stop offset="1" stop-color="#00D1FF"/>
</linearGradient>
<linearGradient id="paint32_linear" x1="0.162133" y1="206.453" x2="1441.86" y2="206.453" gradientUnits="userSpaceOnUse">
<stop stop-color="#ED1EFF"/>
<stop offset="1" stop-color="#00D1FF"/>
</linearGradient>
<linearGradient id="paint33_linear" x1="0.110135" y1="198.241" x2="1441.54" y2="198.241" gradientUnits="userSpaceOnUse">
<stop stop-color="#ED1EFF"/>
<stop offset="1" stop-color="#00D1FF"/>
</linearGradient>
<linearGradient id="paint34_linear" x1="0.0136256" y1="188.561" x2="1441.22" y2="188.561" gradientUnits="userSpaceOnUse">
<stop stop-color="#ED1EFF"/>
<stop offset="1" stop-color="#00D1FF"/>
</linearGradient>
<linearGradient id="paint35_linear" x1="0.0133446" y1="177.755" x2="1440.91" y2="177.755" gradientUnits="userSpaceOnUse">
<stop stop-color="#ED1EFF"/>
<stop offset="1" stop-color="#00D1FF"/>
</linearGradient>
<linearGradient id="paint36_linear" x1="0.0384663" y1="167.237" x2="1440.62" y2="167.237" gradientUnits="userSpaceOnUse">
<stop stop-color="#ED1EFF"/>
<stop offset="1" stop-color="#00D1FF"/>
</linearGradient>
<linearGradient id="paint37_linear" x1="0.0832373" y1="157.405" x2="1440.35" y2="157.405" gradientUnits="userSpaceOnUse">
<stop stop-color="#ED1EFF"/>
<stop offset="1" stop-color="#00D1FF"/>
</linearGradient>
<linearGradient id="paint38_linear" x1="0.140523" y1="147.601" x2="1440.09" y2="147.601" gradientUnits="userSpaceOnUse">
<stop stop-color="#ED1EFF"/>
<stop offset="1" stop-color="#00D1FF"/>
</linearGradient>
<linearGradient id="paint39_linear" x1="0.122403" y1="138.022" x2="1439.86" y2="138.022" gradientUnits="userSpaceOnUse">
<stop stop-color="#ED1EFF"/>
<stop offset="1" stop-color="#00D1FF"/>
</linearGradient>
<linearGradient id="paint40_linear" x1="0.0652584" y1="129.06" x2="1439.66" y2="129.06" gradientUnits="userSpaceOnUse">
<stop stop-color="#ED1EFF"/>
<stop offset="1" stop-color="#00D1FF"/>
</linearGradient>
<linearGradient id="paint41_linear" x1="0.0215064" y1="120.841" x2="1439.49" y2="120.841" gradientUnits="userSpaceOnUse">
<stop stop-color="#ED1EFF"/>
<stop offset="1" stop-color="#00D1FF"/>
</linearGradient>
<linearGradient id="paint42_linear" x1="5.44883e-06" y1="113.868" x2="1439.35" y2="113.868" gradientUnits="userSpaceOnUse">
<stop stop-color="#ED1EFF"/>
<stop offset="1" stop-color="#00D1FF"/>
</linearGradient>
<linearGradient id="paint43_linear" x1="0.0100542" y1="108.322" x2="1439.24" y2="108.322" gradientUnits="userSpaceOnUse">
<stop stop-color="#ED1EFF"/>
<stop offset="1" stop-color="#00D1FF"/>
</linearGradient>
<linearGradient id="paint44_linear" x1="0.0627555" y1="104.575" x2="1439.18" y2="104.575" gradientUnits="userSpaceOnUse">
<stop stop-color="#ED1EFF"/>
<stop offset="1" stop-color="#00D1FF"/>
</linearGradient>
<linearGradient id="paint45_linear" x1="0.152121" y1="102.671" x2="1439.16" y2="102.671" gradientUnits="userSpaceOnUse">
<stop stop-color="#ED1EFF"/>
<stop offset="1" stop-color="#00D1FF"/>
</linearGradient>
</defs>
</svg>
