<svg width="20" height="20" viewBox="0 0 20 20" fill="none" xmlns="http://www.w3.org/2000/svg">
<path d="M18.2667 9.66658C16.5833 5.75825 13.4167 3.33325 10 3.33325C6.58333 3.33325 3.41666 5.75825 1.73333 9.66658C1.68744 9.77172 1.66376 9.8852 1.66376 9.99992C1.66376 10.1146 1.68744 10.2281 1.73333 10.3333C3.41666 14.2416 6.58333 16.6666 10 16.6666C13.4167 16.6666 16.5833 14.2416 18.2667 10.3333C18.3125 10.2281 18.3362 10.1146 18.3362 9.99992C18.3362 9.8852 18.3125 9.77172 18.2667 9.66658ZM10 14.9999C7.35833 14.9999 4.85833 13.0916 3.41666 9.99992C4.85833 6.90825 7.35833 4.99992 10 4.99992C12.6417 4.99992 15.1417 6.90825 16.5833 9.99992C15.1417 13.0916 12.6417 14.9999 10 14.9999ZM10 6.66658C9.34072 6.66658 8.69626 6.86208 8.14809 7.22835C7.59993 7.59462 7.17269 8.11522 6.9204 8.72431C6.6681 9.33339 6.60209 10.0036 6.73071 10.6502C6.85933 11.2968 7.1768 11.8908 7.64297 12.3569C8.10915 12.8231 8.70309 13.1406 9.34969 13.2692C9.9963 13.3978 10.6665 13.3318 11.2756 13.0795C11.8847 12.8272 12.4053 12.4 12.7716 11.8518C13.1378 11.3037 13.3333 10.6592 13.3333 9.99992C13.3333 9.11586 12.9821 8.26802 12.357 7.6429C11.7319 7.01777 10.8841 6.66658 10 6.66658ZM10 11.6666C9.67036 11.6666 9.34813 11.5688 9.07404 11.3857C8.79996 11.2026 8.58634 10.9423 8.4602 10.6377C8.33405 10.3332 8.30104 9.99807 8.36535 9.67477C8.42966 9.35147 8.5884 9.05449 8.82148 8.82141C9.05457 8.58832 9.35154 8.42958 9.67484 8.36528C9.99815 8.30097 10.3333 8.33397 10.6378 8.46012C10.9423 8.58626 11.2026 8.79989 11.3858 9.07397C11.5689 9.34805 11.6667 9.67028 11.6667 9.99992C11.6667 10.4419 11.4911 10.8659 11.1785 11.1784C10.8659 11.491 10.442 11.6666 10 11.6666Z" fill="#00D1FF"/>
</svg>